<svg width="32" height="32" viewBox="0 0 32 32" fill="none" xmlns="http://www.w3.org/2000/svg">
<path fill-rule="evenodd" clip-rule="evenodd" d="M0 0H32V32H0V0ZM16 24C11.5889 24 8 20.4111 8 16C8 11.5889 11.5889 8 16 8C20.4111 8 24 11.5889 24 16C24 20.4111 20.4111 24 16 24ZM16 9.55458C12.4459 9.55458 9.55458 12.4459 9.55458 16C9.55458 19.5541 12.4459 22.4454 16 22.4454C19.5541 22.4454 22.4454 19.5541 22.4454 16C22.4454 12.4459 19.5541 9.55458 16 9.55458ZM25.3797 7.78948C25.6396 7.94466 25.9236 8.01822 26.204 8.01822C26.7763 8.01822 27.3335 7.71156 27.6396 7.16341C27.8606 6.76774 27.9194 6.30691 27.805 5.86591C27.6907 5.42456 27.4167 5.05577 27.0339 4.82737C26.6512 4.59897 26.2053 4.53818 25.7787 4.65674C25.3517 4.77497 24.9949 5.05778 24.774 5.45311C24.553 5.84878 24.4945 6.30994 24.6089 6.75128C24.7233 7.19229 24.9969 7.56109 25.3797 7.78948Z" fill="white"/>
</svg>
