<svg width="32" height="32" viewBox="0 0 32 32" fill="none" xmlns="http://www.w3.org/2000/svg">
<path d="M16 24C11.5889 24 8 20.4111 8 16C8 11.5889 11.5889 8 16 8C20.4111 8 24 11.5889 24 16C24 20.4111 20.4111 24 16 24ZM16 9.55458C12.4459 9.55458 9.55458 12.4459 9.55458 16C9.55458 19.5541 12.4459 22.4454 16 22.4454C19.5541 22.4454 22.4454 19.5541 22.4454 16C22.4454 12.4459 19.5541 9.55458 16 9.55458Z" fill="white" stroke="#40A1FF" stroke-width="0.1"/>
<path d="M26.204 8.0181C25.9236 8.0181 25.6396 7.94454 25.3797 7.78937C24.9969 7.56097 24.7233 7.19218 24.6089 6.75117C24.4945 6.30982 24.553 5.84866 24.774 5.453C24.9949 5.05767 25.3517 4.77486 25.7787 4.65663C26.2053 4.53806 26.6512 4.59886 27.0339 4.82725C27.4167 5.05565 27.6907 5.42445 27.805 5.86579C27.9194 6.3068 27.8606 6.76762 27.6396 7.16329C27.3335 7.71144 26.7763 8.0181 26.204 8.0181Z" fill="white"/>
<rect x="0.5" y="0.5" width="31" height="31" stroke="white"/>
</svg>
