<svg width="32" height="32" viewBox="0 0 32 32" fill="none" xmlns="http://www.w3.org/2000/svg">
<rect x="0.5" y="0.5" width="31" height="31" stroke="white"/>
<path d="M13.1615 9.43567C13.1615 9.97568 13.1615 12.386 13.1615 12.386H11V15.9936H13.1615V26.7142H17.6016V15.9939H20.5811C20.5811 15.9939 20.8602 14.2641 20.9954 12.3727C20.6076 12.3727 17.6184 12.3727 17.6184 12.3727C17.6184 12.3727 17.6184 10.2739 17.6184 9.90598C17.6184 9.53731 18.1025 9.04139 18.581 9.04139C19.0586 9.04139 20.0665 9.04139 21.0001 9.04139C21.0001 8.55021 21.0001 6.85306 21.0001 5.28564C19.7538 5.28564 18.3359 5.28564 17.7109 5.28564C13.0517 5.2854 13.1615 8.89661 13.1615 9.43567Z" fill="white"/>
</svg>
