<svg width="32" height="32" viewBox="0 0 32 32" fill="none" xmlns="http://www.w3.org/2000/svg">
<path d="M26.3715 20.9998C26.3462 20.9493 26.3225 20.9074 26.3005 20.8739C25.9368 20.2696 25.2416 19.5278 24.2156 18.6483L24.1939 18.6282L24.183 18.6183L24.1721 18.6082H24.1611C23.6954 18.1987 23.4005 17.9233 23.277 17.7824C23.051 17.5138 23.0004 17.242 23.1239 16.9666C23.2111 16.7585 23.5389 16.319 24.1063 15.6476C24.4048 15.2918 24.6412 15.0066 24.8158 14.7917C26.0749 13.2476 26.6207 12.2609 26.4532 11.8313L26.3882 11.7308C26.3445 11.6704 26.2317 11.6151 26.05 11.5647C25.8679 11.5143 25.6351 11.506 25.3512 11.5395L22.2075 11.5596C22.1566 11.5429 22.0838 11.5445 21.9891 11.5647C21.8945 11.5848 21.8471 11.5949 21.8471 11.5949L21.7924 11.6202L21.749 11.6505C21.7126 11.6705 21.6726 11.7057 21.6289 11.7561C21.5854 11.8063 21.549 11.8652 21.52 11.9323C21.1777 12.7446 20.7886 13.4998 20.3518 14.1979C20.0826 14.6142 19.8353 14.975 19.6094 15.2805C19.3839 15.5858 19.1947 15.8108 19.042 15.955C18.889 16.0994 18.751 16.215 18.6271 16.3024C18.5033 16.3898 18.4088 16.4267 18.3434 16.4132C18.2778 16.3997 18.2161 16.3863 18.1576 16.3729C18.0558 16.3124 17.9739 16.2302 17.9122 16.1262C17.8502 16.0221 17.8084 15.8912 17.7866 15.7334C17.7649 15.5756 17.752 15.4398 17.7484 15.3256C17.7449 15.2116 17.7465 15.0503 17.7539 14.8422C17.7615 14.634 17.7649 14.4931 17.7649 14.4193C17.7649 14.1641 17.7703 13.8872 17.7811 13.5885C17.7921 13.2898 17.801 13.0531 17.8085 12.8787C17.8159 12.7042 17.8193 12.5195 17.8193 12.3248C17.8193 12.1301 17.8065 11.9774 17.7811 11.8666C17.756 11.756 17.7175 11.6485 17.6668 11.5444C17.6157 11.4403 17.541 11.3598 17.443 11.3027C17.3448 11.2456 17.2226 11.2004 17.0773 11.1667C16.6916 11.0862 16.2004 11.0426 15.6035 11.0359C14.2501 11.0225 13.3804 11.1031 12.9947 11.2776C12.8418 11.3514 12.7036 11.4521 12.5799 11.5796C12.4489 11.7273 12.4306 11.808 12.5252 11.8212C12.9619 11.8816 13.2711 12.0259 13.453 12.2542L13.5186 12.3751C13.5696 12.4624 13.6205 12.6168 13.6715 12.8383C13.7224 13.0598 13.7552 13.3048 13.7697 13.5732C13.806 14.0634 13.806 14.4829 13.7697 14.832C13.7332 15.1811 13.6988 15.453 13.666 15.6476C13.6331 15.8423 13.584 16.0001 13.5186 16.1209C13.453 16.2417 13.4094 16.3156 13.3875 16.3424C13.3657 16.3692 13.3475 16.3861 13.333 16.3927C13.2384 16.4261 13.1401 16.4432 13.0383 16.4432C12.9363 16.4432 12.8126 16.3961 12.6671 16.3021C12.5216 16.2081 12.3707 16.0789 12.2142 15.9144C12.0577 15.7499 11.8812 15.52 11.6846 15.2246C11.4882 14.9293 11.2845 14.5802 11.0734 14.1774L10.8988 13.8853C10.7896 13.6974 10.6405 13.4238 10.4513 13.0647C10.262 12.7055 10.0946 12.358 9.94916 12.0224C9.89101 11.8814 9.80365 11.7741 9.68723 11.7002L9.63259 11.6699C9.59627 11.6431 9.53797 11.6147 9.45798 11.5843C9.37788 11.554 9.29431 11.5323 9.20691 11.5189L6.21596 11.539C5.91033 11.539 5.70295 11.6028 5.59375 11.7304L5.55005 11.7908C5.52822 11.8244 5.51721 11.8781 5.51721 11.9519C5.51721 12.0258 5.53904 12.1164 5.58274 12.2238C6.01937 13.1704 6.49418 14.0833 7.0072 14.9627C7.52021 15.8422 7.96601 16.5505 8.34433 17.0873C8.72272 17.6244 9.10842 18.1313 9.50142 18.6078C9.89441 19.0845 10.1546 19.3899 10.2818 19.5241C10.4093 19.6586 10.5094 19.7591 10.5821 19.8262L10.8551 20.0679C11.0297 20.229 11.2862 20.422 11.6246 20.6468C11.9631 20.8718 12.3378 21.0933 12.7489 21.3117C13.1602 21.5297 13.6386 21.7076 14.1844 21.8451C14.7302 21.9829 15.2614 22.0381 15.7782 22.0115H17.0335C17.2881 21.9912 17.481 21.9173 17.6121 21.7899L17.6555 21.7394C17.6847 21.6993 17.7121 21.6371 17.7373 21.5533C17.7628 21.4694 17.7755 21.377 17.7755 21.2764C17.7681 20.9878 17.7919 20.7277 17.8463 20.4961C17.9007 20.2646 17.9628 20.0901 18.0321 19.9725C18.1014 19.8551 18.1797 19.756 18.2667 19.6756C18.354 19.5951 18.4161 19.5463 18.4526 19.5295C18.4889 19.5126 18.5178 19.5012 18.5396 19.4943C18.7143 19.4406 18.9198 19.4926 19.1566 19.6505C19.3931 19.8083 19.615 20.0031 19.8225 20.2346C20.0299 20.4663 20.2791 20.7263 20.5702 21.0149C20.8614 21.3036 21.116 21.5182 21.3342 21.6594L21.5525 21.7802C21.6982 21.8608 21.8874 21.9347 22.1204 22.0018C22.3529 22.0689 22.5566 22.0857 22.7315 22.0521L25.5258 22.0119C25.8022 22.0119 26.0173 21.9697 26.1698 21.886C26.3227 21.802 26.4135 21.7096 26.4428 21.6091C26.472 21.5084 26.4735 21.3942 26.4483 21.2665C26.4224 21.1392 26.3969 21.0501 26.3715 20.9998Z" fill="white"/>
<rect x="0.5" y="0.5" width="31" height="31" stroke="white"/>
</svg>
