<svg width="93" height="93" viewBox="0 0 93 93" fill="none" xmlns="http://www.w3.org/2000/svg">
<g clip-path="url(#clip0)">
<path d="M69.4308 24.3891C69.4802 24.357 69.5347 24.3335 69.5919 24.3194C69.6468 24.3069 69.7028 24.3002 69.759 24.2995C69.8666 24.2976 69.9732 24.3193 70.0714 24.3632C70.1647 24.4086 70.2448 24.4771 70.3042 24.5621L70.8314 24.0966C70.7749 24.0262 70.7078 23.9651 70.6324 23.9156C70.5532 23.8622 70.4685 23.8175 70.3798 23.7823C70.2864 23.7482 70.1906 23.7209 70.0933 23.7007C69.996 23.6835 69.8976 23.6741 69.7988 23.6728C69.6235 23.6727 69.4491 23.6988 69.2816 23.7504C69.129 23.7975 68.9861 23.8716 68.8598 23.9693C68.7409 24.0624 68.6433 24.1797 68.5733 24.3135C68.502 24.4546 68.4658 24.6109 68.4679 24.7691C68.4659 24.8862 68.4875 25.0026 68.5315 25.1112C68.5708 25.2023 68.6276 25.2848 68.6987 25.354C68.7705 25.4252 68.8539 25.4838 68.9453 25.527C69.0443 25.5746 69.146 25.6164 69.2497 25.6524C69.3821 25.6945 69.5079 25.7548 69.6238 25.8314C69.6679 25.8616 69.7037 25.9024 69.7281 25.95C69.7524 25.9976 69.7644 26.0505 69.763 26.104C69.7656 26.1679 69.7505 26.2312 69.7193 26.287C69.6903 26.3385 69.6494 26.3822 69.5999 26.4144C69.5485 26.4481 69.4911 26.4717 69.4308 26.484C69.3655 26.4986 69.2987 26.5053 69.2318 26.5039C69.0978 26.5036 68.9657 26.4723 68.8459 26.4124C68.7285 26.3607 68.6284 26.2765 68.5574 26.1696L67.9884 26.6352C68.0557 26.7214 68.1355 26.7972 68.2252 26.86C68.3197 26.9254 68.4219 26.9789 68.5295 27.0192C68.6393 27.0627 68.7533 27.0947 68.8697 27.1146C68.9856 27.1381 69.1037 27.1488 69.2219 27.1465C69.3842 27.1466 69.5459 27.1266 69.7033 27.0868C69.8599 27.0469 70.0081 26.9796 70.141 26.8878C70.2711 26.7987 70.3798 26.6818 70.4593 26.5457C70.5452 26.39 70.5878 26.2141 70.5827 26.0364C70.5852 25.9225 70.5642 25.8094 70.521 25.7041C70.4792 25.6061 70.4191 25.517 70.344 25.4415C70.2595 25.3615 70.1636 25.2945 70.0595 25.2425C69.9366 25.1778 69.8089 25.1226 69.6775 25.0774C69.5696 25.0412 69.4671 24.9903 69.3731 24.9262C69.338 24.9013 69.3097 24.8681 69.2906 24.8296C69.2715 24.791 69.2623 24.7484 69.2637 24.7054C69.2622 24.6409 69.2795 24.5773 69.3134 24.5224C69.3429 24.4703 69.3828 24.4249 69.4308 24.3891ZM71.0502 23.7524L70.9289 24.4129H71.842L71.3825 27.045H72.1663L72.6199 24.4129H73.5232L73.6405 23.7465L71.0502 23.7524ZM75.9861 23.7524L75.6221 25.7658C75.6065 25.8502 75.5846 25.9334 75.5564 26.0145C75.531 26.097 75.489 26.1735 75.4331 26.2393C75.3765 26.3086 75.3051 26.3644 75.2242 26.4024C75.1224 26.4482 75.0114 26.47 74.8999 26.4661C74.8129 26.4695 74.7261 26.4546 74.6452 26.4223C74.5793 26.3989 74.5199 26.36 74.4721 26.3089C74.4283 26.2617 74.3957 26.2053 74.3766 26.1438C74.3567 26.0793 74.3467 26.0123 74.3468 25.9448V25.8513C74.3489 25.8186 74.3529 25.7861 74.3587 25.7538L74.7109 23.7644H73.9569L73.5948 25.8314C73.5948 25.8772 73.5828 25.9269 73.5789 25.9767C73.5749 26.0264 73.5789 26.0702 73.5789 26.1159C73.5773 26.2635 73.6085 26.4096 73.6704 26.5437C73.7301 26.6711 73.8194 26.7823 73.931 26.868C74.054 26.9593 74.193 27.0268 74.3408 27.0669C74.5162 27.1166 74.6978 27.1407 74.88 27.1385C75.0829 27.1423 75.2848 27.1107 75.4768 27.045C75.6424 26.9887 75.7952 26.9001 75.9265 26.7844C76.0534 26.6729 76.1575 26.5378 76.2328 26.3865C76.3132 26.2175 76.3694 26.038 76.3999 25.8533L76.762 23.7664L75.9861 23.7524ZM79.5672 24.0747C79.4175 23.9627 79.2481 23.8797 79.0679 23.83C78.8864 23.78 78.699 23.7545 78.5108 23.7544H77.2912L76.7103 27.051H78.0572C78.3283 27.053 78.5977 27.0072 78.853 26.9157C79.0895 26.8318 79.3066 26.7013 79.4916 26.5317C79.6726 26.3646 79.8163 26.1613 79.9134 25.9349C80.0182 25.6829 80.0697 25.412 80.0646 25.1391C80.0696 24.9186 80.0211 24.7002 79.9233 24.5025C79.8369 24.3347 79.7146 24.188 79.5652 24.0727L79.5672 24.0747ZM79.1872 25.6663C79.1389 25.8025 79.0638 25.9277 78.9664 26.0344C78.8636 26.1454 78.738 26.2329 78.5983 26.291C78.4372 26.3584 78.2636 26.3909 78.089 26.3865H77.5897L77.9358 24.4129H78.3596C78.4949 24.4111 78.6295 24.4326 78.7575 24.4766C78.8622 24.5156 78.9577 24.5759 79.038 24.6537C79.1115 24.7285 79.1685 24.818 79.2051 24.9163C79.2405 25.0194 79.2586 25.1276 79.2588 25.2366C79.2592 25.3789 79.2349 25.5203 79.1872 25.6544V25.6663ZM80.1601 27.0589H80.938L81.5169 23.7624H80.741L80.1601 27.0589ZM84.722 24.0747C84.5775 23.9434 84.4075 23.8432 84.2226 23.7803C84.0067 23.7108 83.781 23.6765 83.5541 23.6788C83.1639 23.673 82.7814 23.7873 82.4583 24.0062C82.1352 24.225 81.8871 24.5379 81.7477 24.9023C81.6502 25.1521 81.6009 25.4181 81.6025 25.6862C81.6003 25.8905 81.6381 26.0933 81.7139 26.283C81.7819 26.4594 81.8902 26.6175 82.0302 26.7446C82.1755 26.8776 82.3479 26.9773 82.5355 27.0371C82.7528 27.1095 82.981 27.1438 83.21 27.1385C83.4832 27.144 83.7546 27.0911 84.0058 26.9833C84.2375 26.8839 84.4461 26.7376 84.6185 26.5536C84.7903 26.3686 84.9254 26.1525 85.0164 25.917C85.1121 25.6627 85.1599 25.3929 85.1577 25.1212C85.1592 24.9171 85.122 24.7146 85.0482 24.5243C84.9738 24.3489 84.8618 24.192 84.72 24.0648L84.722 24.0747ZM84.2664 25.6663C84.2204 25.8108 84.1482 25.9457 84.0535 26.0642C83.9592 26.1819 83.8404 26.2777 83.7053 26.3447C83.5629 26.4163 83.4051 26.4519 83.2458 26.4482C83.1226 26.452 83 26.4303 82.8857 26.3845C82.7864 26.3452 82.6968 26.2848 82.6231 26.2074C82.5506 26.1325 82.495 26.043 82.4599 25.9448C82.4218 25.841 82.4023 25.7312 82.4022 25.6206C82.4021 25.4634 82.4283 25.3074 82.4798 25.159C82.5296 25.0149 82.6036 24.8803 82.6987 24.7611C82.793 24.6445 82.9101 24.5484 83.0428 24.4786C83.1682 24.4158 83.3053 24.3796 83.4453 24.3724C83.5854 24.3652 83.7254 24.3872 83.8565 24.4368C83.9545 24.4755 84.0431 24.5348 84.1162 24.6106C84.1893 24.6865 84.2452 24.7771 84.2803 24.8765C84.3204 24.9827 84.3412 25.0952 84.342 25.2087C84.3403 25.3618 84.3141 25.5136 84.2644 25.6583L84.2664 25.6663ZM71.4939 22.8691C71.7308 22.7853 71.9481 22.654 72.1325 22.4831C72.3135 22.316 72.4572 22.1127 72.5543 21.8863C72.6582 21.634 72.7096 21.3633 72.7055 21.0905C72.7107 20.8706 72.6622 20.6528 72.5642 20.4559C72.4753 20.292 72.3525 20.1489 72.2041 20.0361C72.0553 19.9225 71.8857 19.8394 71.7048 19.7914C71.5232 19.7417 71.336 19.7156 71.1477 19.7138H69.9282L69.3452 22.9805H70.6921C70.9628 22.9857 71.2323 22.9426 71.4879 22.8532L71.4939 22.8691ZM70.5747 20.3624H70.9985C71.134 20.3602 71.2688 20.3824 71.3964 20.428C71.5015 20.4663 71.5971 20.5267 71.6769 20.6051C71.7526 20.6782 71.8098 20.7682 71.844 20.8677C71.8795 20.9701 71.8977 21.0776 71.8977 21.186C71.8977 21.3319 71.8721 21.4767 71.8221 21.6137C71.7738 21.7499 71.6988 21.8751 71.6013 21.9818C71.4984 22.0922 71.3729 22.1791 71.2333 22.2364C71.072 22.3035 70.8986 22.3367 70.7239 22.3339H70.2246L70.5747 20.3624ZM72.795 22.9805H73.5729L74.1558 19.682H73.3779L72.795 22.9805ZM75.3674 20.6548C75.4669 20.5395 75.5888 20.4454 75.7255 20.3783C75.8657 20.3104 76.0194 20.275 76.1751 20.2748C76.3167 20.27 76.4571 20.3015 76.583 20.3663C76.6834 20.4208 76.7699 20.4978 76.8356 20.5911L77.4007 20.0838C77.2707 19.9177 77.0971 19.791 76.8993 19.7178C76.6719 19.6341 76.4313 19.5923 76.1891 19.5944C75.9221 19.5922 75.6577 19.6464 75.4132 19.7536C75.1802 19.8565 74.9699 20.0046 74.7944 20.1893C74.6183 20.3756 74.4793 20.5936 74.3846 20.8319C74.2852 21.0852 74.2359 21.3555 74.2394 21.6277C74.236 21.8323 74.2745 22.0354 74.3528 22.2245C74.4256 22.3959 74.5341 22.5499 74.6711 22.6761C74.8154 22.8044 74.9847 22.9013 75.1685 22.9606C75.3757 23.032 75.5939 23.0663 75.813 23.0621C76.0324 23.0625 76.2509 23.0357 76.4636 22.9825C76.6597 22.9351 76.8494 22.8643 77.0286 22.7716L77.339 21.0308H75.9841L75.8668 21.6694H76.5094L76.4019 22.2882C76.3327 22.3239 76.2581 22.3481 76.1811 22.3598C76.0957 22.3754 76.0092 22.384 75.9225 22.3857C75.7957 22.389 75.6694 22.3681 75.5504 22.324C75.4468 22.2863 75.3529 22.2258 75.2759 22.1469C75.1996 22.0712 75.1423 21.9785 75.1088 21.8763C75.0697 21.7679 75.0502 21.6534 75.0511 21.5381C75.0511 21.3724 75.0808 21.208 75.1386 21.0527C75.1931 20.907 75.2733 20.7722 75.3754 20.6548H75.3674ZM77.4882 22.9825H78.2661L78.847 19.6859H78.0691L77.4882 22.9825ZM79.5155 22.9825H80.2874L80.7529 20.3504H81.6562L81.7716 19.6839H79.1733L79.0519 20.3504H79.9751L79.5155 22.9825ZM83.202 22.326L83.3134 22.9825H84.1291L83.5064 19.6859H82.7504L80.6515 22.9845H81.5348L81.9327 22.328L83.202 22.326ZM82.9493 20.5354L83.1224 21.7033H82.261L82.9493 20.5354ZM85.3208 22.3081L85.7863 19.6859H85.0085L84.4275 22.9805H86.4906L86.612 22.3061L85.3208 22.3081ZM71.842 17.6089H73.0775L73.1889 16.9703H71.9534L72.0788 16.266H73.3879L73.5033 15.6035H71.4322L70.8473 18.908H71.6113L71.842 17.6089ZM73.4913 17.9591C73.4888 18.1072 73.5194 18.254 73.5808 18.3888C73.642 18.5153 73.7319 18.6256 73.8435 18.7111C73.9655 18.804 74.1048 18.8716 74.2533 18.91C74.4278 18.9605 74.6088 18.9847 74.7905 18.9817C74.9933 18.9856 75.1954 18.954 75.3873 18.8881C75.5529 18.8318 75.7057 18.7432 75.8369 18.6275C75.9639 18.5165 76.0674 18.3813 76.1413 18.2296C76.2225 18.0609 76.2788 17.8813 76.3084 17.6964L76.6745 15.6194H75.9105L75.5484 17.6268C75.5329 17.7113 75.511 17.7944 75.4828 17.8755C75.4553 17.9565 75.4135 18.032 75.3594 18.0983C75.3029 18.1677 75.2315 18.2234 75.1506 18.2615C75.0488 18.3073 74.9378 18.329 74.8263 18.3251C74.7389 18.3273 74.6518 18.3131 74.5696 18.2833C74.5039 18.2607 74.445 18.2216 74.3985 18.1699C74.3551 18.1213 74.322 18.0645 74.301 18.0028C74.2811 17.9384 74.2711 17.8713 74.2712 17.8039V17.7104C74.2733 17.6777 74.2773 17.6451 74.2831 17.6129L74.6373 15.6234H73.8673L73.5052 17.6905C73.5052 17.7382 73.4933 17.786 73.4893 17.8357C73.4854 17.8855 73.4893 17.9193 73.4893 17.963L73.4913 17.9591ZM78.7018 18.9041L78.8231 18.2296H77.5379L77.9915 15.6194H77.2136L76.6327 18.918L78.7018 18.9041ZM81.2682 18.2276H79.9731L80.4366 15.6194H79.6587L79.0798 18.916H81.1469L81.2682 18.2276Z" fill="white"/>
<path d="M91.4041 46.0988C91.619 48.0883 88.7442 51.1262 86.1658 51.1222C84.3514 51.1222 82.0555 50.2807 81.7432 46.9085C81.1762 40.7888 85.175 36.4756 85.1114 35.8808C85.0477 35.2859 83.9177 34.701 83.291 34.7707L83.1617 34.904C82.7956 33.6725 81.023 33.0836 79.9606 33.1632C78.3949 33.2785 76.3795 35.6341 75.4564 37.4445C74.7873 37.5404 74.1295 37.703 73.4928 37.93C73.9683 34.3767 72.4185 33.5093 70.8567 33.6784C69.8707 33.777 68.9246 34.1188 68.1033 34.6732C68.1192 34.5699 68.1232 34.4651 68.1152 34.3608C68.0277 33.565 65.2862 32.5404 65.3956 33.565C65.5945 35.3556 61.0187 41.6224 59.1347 47.8555C58.9218 47.9948 58.8502 47.9749 58.6035 47.9092C57.6625 47.6506 56.795 44.8315 55.856 43.8686C57.376 43.0966 62.4392 38.3219 62.5705 36.3304C62.6183 35.6062 60.0558 33.943 59.7256 34.9636C59.1287 36.7999 55.8023 41.6006 53.7571 42.5237C54.6643 39.3743 56.2579 36.5771 56.236 36.3782C56.1922 35.9803 54.6166 35.3715 53.5005 35.5485C53.0488 35.6202 51.5846 38.9963 50.7152 41.4712C48.4671 45.0941 41.289 53.3425 40.6683 53.4081C40.2147 53.4579 39.9182 52.3398 39.9182 51.3072C39.9182 45.7884 45.5664 39.7105 47.7568 39.4738C48.3537 39.4101 49.5036 40.4069 49.3942 39.4022C49.239 37.9658 47.4843 37.1063 46.394 37.1521C42.037 37.3371 38.1675 42.2849 36.9281 45.1597C35.3365 47.9132 29.8395 54.5441 27.9754 56.9733C27.9381 57.0104 27.8877 57.0312 27.8351 57.0312C27.7826 57.0312 27.7321 57.0104 27.6949 56.9733C27.6611 56.9384 27.6413 56.8924 27.6391 56.844C28.6856 48.3111 36.3193 40.0229 36.3252 39.0739C36.3252 38.2343 34.6939 37.6276 33.1978 37.7887C31.3774 37.9877 18.9948 55.7657 14.994 59.7944C14.9538 59.8352 14.9025 59.8632 14.8465 59.8749C14.7905 59.8866 14.7323 59.8815 14.6792 59.8603C14.626 59.839 14.5804 59.8025 14.5479 59.7554C14.5154 59.7083 14.4976 59.6527 14.4966 59.5954C14.1664 48.7925 36.6853 28.0522 36.8306 26.3392C36.9261 25.1992 34.2602 24.3497 32.961 24.3895C23.1071 24.6999 -0.0524902 43.5363 -0.0524902 48.0883C-0.0524902 50.2767 3.80313 53.1376 3.77926 51.731C3.6957 46.7474 25.6318 26.4307 32.595 26.761C30.13 28.3068 8.30335 47.565 7.37426 61.39C7.10965 65.4664 10.5932 66.4791 12.9766 66.4791C14.6001 66.4791 16.4085 65.4465 23.7039 53.9453C23.4911 54.8406 23.2344 57.1285 23.2881 57.6099C23.499 59.5716 26.3082 60.7016 28.045 60.4847C28.9184 60.3753 32.6208 54.6754 35.5195 50.9352C35.4578 53.8637 37.2981 56.3068 41.3169 55.8811C43.2009 55.6821 47.908 49.2123 49.2748 46.6439C48.9306 48.0823 48.2403 49.8569 48.3517 50.8994C48.4034 51.3669 51.7338 53.444 51.515 51.3848C51.3876 50.211 52.3107 47.6048 52.8917 45.3289C54.7538 45.9118 55.1139 51.5798 58.2872 51.2356L58.3846 51.1998C58.1439 52.5925 57.9868 53.7344 58.13 55.0256C58.2036 55.702 58.6293 55.901 58.8164 56.4182C38.1018 58.9508 11.1026 71.5383 5.41461 72.8633C3.30377 73.3527 3.1844 72.2983 2.82828 72.7778C1.84946 74.065 5.14603 79.4744 8.30335 79.0247C17.5047 77.7177 36.0845 62.8761 61.8861 58.4953L61.6872 57.3553C61.353 43.8268 69.8739 35.1805 70.7513 35.9067C71.1492 36.2409 71.0795 37.4445 70.7334 39.2152C67.3731 41.903 64.3491 45.2254 64.7411 48.8423C64.8047 49.4391 65.1887 51.4425 67.1284 51.164C69.9495 50.7661 72.3846 44.4256 73.2322 39.8239C73.6649 39.4814 74.1545 39.2174 74.6785 39.0441C74.1971 40.4367 73.6838 41.6602 73.6838 43.5642C73.6838 44.2127 73.7136 47.764 76.6123 47.764C77.607 47.764 78.5441 47.0677 79.4274 46.053C79.7975 49.274 81.218 50.9472 83.0682 52.1389C78.6734 52.5326 74.3095 53.2172 70.0052 54.188C68.5609 54.3432 68.5469 56.9733 69.1179 57.1106C82.0734 53.9155 88.4796 54.2159 89.9041 54.005C90.5586 53.9075 90.1866 53.1316 89.5678 52.1687C92.3074 50.8994 92.751 48.7866 92.95 47.9729C93.3379 46.2321 91.3245 45.3627 91.4041 46.0988ZM66.84 49.5903C66.6768 49.6082 66.5555 49.1924 66.5157 48.8244C66.3585 47.3601 67.9879 44.4018 70.0967 41.7299C69.0443 45.4761 67.59 49.5107 66.84 49.5903ZM76.6979 45.5795C76.4094 45.6213 76.2701 45.1359 76.2502 44.8235C75.9697 40.373 79.5945 35.5645 80.6808 35.2302C81.4229 35.0014 81.7352 35.4292 81.773 35.7714C81.7969 35.9882 82.2107 35.8171 82.4634 35.9703C81.9625 36.6758 81.4976 37.4062 81.0707 38.1587C79.7995 40.3293 77.5374 45.4621 76.6979 45.5795Z" fill="white"/>
<path d="M60.8669 14.1696C61.5214 14.4999 62.7629 17.6273 62.5957 18.8628C61.601 26.1801 43.5942 24.698 40.5642 32.2421C39.6669 34.4743 38.3519 31.7606 38.7557 30.7002C41.5549 23.3391 58.7341 21.29 59.8304 14.85C59.9597 14.102 60.3854 13.9269 60.8669 14.1696Z" fill="white"/>
</g>
<defs>
<clipPath id="clip0">
<rect width="93" height="93" fill="white"/>
</clipPath>
</defs>
</svg>
