<svg width="60" height="60" viewBox="0 0 60 60" fill="none" xmlns="http://www.w3.org/2000/svg">
<g clip-path="url(#clip0)">
<path d="M7.90186 56.5096L7.90189 56.5098C7.9901 56.9604 8.38514 57.2865 8.84369 57.2865H51.1582C51.6168 57.2865 52.0118 56.9604 52.1 56.5098L52.1001 56.5096L60.0328 15.255L60.0328 15.255C60.1325 14.7334 59.793 14.2327 59.2733 14.1311V14.1311L59.2727 14.131C58.7424 14.0333 58.2489 14.3707 58.1491 14.8907L50.366 55.3683H9.63771L1.85101 14.8909C1.851 14.8909 1.851 14.8909 1.85099 14.8908C1.75288 14.3679 1.2386 14.0373 0.727567 14.1291L0.727566 14.1291L0.726783 14.1293C0.208983 14.2309 -0.132448 14.7333 -0.0326903 15.2532L-0.0326863 15.2532L7.90186 56.5096Z" fill="#2D8AF9" stroke="#2D8AF9" stroke-width="0.1"/>
<path d="M20.805 25.4677L20.8051 25.4676L45.1691 26.0403L45.173 26.0901C45.173 26.0901 45.173 26.0901 45.1731 26.0901C47.9381 25.8711 49.5328 25.0289 51.0688 24.2172L51.0717 24.2157C52.7333 23.3377 54.2993 22.5103 57.5018 22.5103C58.0312 22.5103 58.4609 22.0806 58.4609 21.5512C58.4609 21.0217 58.0312 20.5921 57.5018 20.5921C53.8226 20.5921 51.9631 21.5746 50.1712 22.5215L50.1711 22.5215C48.7379 23.2808 47.3909 23.9931 45.0178 24.1813C44.6211 24.2121 44.1969 24.2285 43.74 24.2285C40.5428 24.2285 38.9785 23.4028 37.3172 22.5259L37.3088 22.5215L37.3066 22.5204C35.5154 21.5738 33.6577 20.5921 29.98 20.5921C26.3026 20.5921 24.4449 21.5746 22.6529 22.5234L22.6763 22.5675L22.6529 22.5234C21.8563 22.9453 21.1051 23.3416 20.1913 23.6511C19.0211 24.0435 17.763 24.2285 16.2291 24.2285C13.0302 24.2285 11.4642 23.401 9.80261 22.5231L9.7997 22.5215L9.79485 22.519C8.00445 21.5728 6.14863 20.5921 2.47452 20.5921C1.94509 20.5921 1.51543 21.0217 1.51543 21.5512C1.51543 22.0806 1.94509 22.5103 2.47452 22.5103C5.67341 22.5103 7.23941 23.3377 8.90097 24.2157L8.90389 24.2172L8.90873 24.2198C10.6991 25.1659 12.555 26.1466 16.2291 26.1466C17.9752 26.1466 19.4299 25.9315 20.805 25.4677Z" fill="#2D8AF9" stroke="#2D8AF9" stroke-width="0.1"/>
<path d="M13.5103 26.7335L13.5104 26.7335C14.2477 27.4709 15.2226 27.8336 16.2112 27.8336C17.2733 27.8336 18.3552 27.4158 19.1829 26.5862L27.0956 18.6736C27.4697 18.2995 27.4697 17.6915 27.0956 17.3174C26.7216 16.9433 26.1135 16.9433 25.7395 17.3174L17.8267 25.2301C16.9702 26.0866 15.6402 26.1492 14.8665 25.3773C14.0947 24.6036 14.1555 23.2755 15.0138 22.4172L27.1829 10.2481C27.557 9.87402 27.557 9.266 27.1829 8.89193C26.8088 8.51786 26.2008 8.51786 25.8267 8.89193L13.6576 21.061C12.0562 22.6624 11.9873 25.2068 13.5103 26.7335Z" fill="#2D8AF9" stroke="#2D8AF9" stroke-width="0.1"/>
<path d="M26.5058 10.5282H26.5058C27.0371 10.5282 27.4649 10.0985 27.4649 9.56913C27.4649 9.03971 27.0352 8.61005 26.5058 8.61004C26.5058 8.61004 26.5058 8.61004 26.5058 8.61004L23.4476 8.60822H23.4476C22.2854 8.60822 21.3467 7.71358 21.3467 6.62004C21.3467 6.1012 21.715 5.60506 22.3127 5.23575C22.9089 4.86743 23.7242 4.63185 24.5949 4.63185H35.6203C36.1498 4.63185 36.5794 4.2022 36.5794 3.67276C36.5794 3.14333 36.1498 2.71367 35.6203 2.71367H24.5949C23.175 2.71367 21.8851 3.14891 20.9491 3.85419C20.0131 4.55949 19.4285 5.53719 19.4285 6.62004C19.4285 8.77627 21.2341 10.5264 23.4458 10.5264C23.4458 10.5264 23.4458 10.5264 23.4458 10.5264L26.5058 10.5282Z" fill="#2D8AF9" stroke="#2D8AF9" stroke-width="0.1"/>
<path d="M16.463 26.5938L16.4631 26.5937L26.1649 16.8919C26.5389 16.5179 27.147 16.5179 27.521 16.8919C27.8951 17.266 27.8951 17.874 27.521 18.2481L17.8193 27.9499L16.463 26.5938ZM16.463 26.5938C14.8617 28.197 14.7927 30.7432 16.3176 32.2681C17.0549 33.0054 18.0298 33.3682 19.0184 33.3682M16.463 26.5938L19.0184 33.3682M19.0184 33.3682C20.0805 33.3682 21.1624 32.9504 21.9902 32.1208L31.6919 22.419C32.066 22.0449 32.066 21.4369 31.6919 21.0628C31.3179 20.6888 30.7098 20.6888 30.3358 21.0628L20.634 30.7647C19.7774 31.6212 18.4474 31.6855 17.6738 30.9119C16.9001 30.1383 16.9609 28.8101 17.8192 27.9499L19.0184 33.3682Z" fill="#2D8AF9" stroke="#2D8AF9" stroke-width="0.1"/>
<path d="M21.8504 35.0717C22.5877 35.809 23.5625 36.1736 24.553 36.1736C25.6133 36.1736 26.6952 35.7539 27.5229 34.9263L35.8611 26.5881C36.2351 26.214 36.2351 25.606 35.8611 25.2319C35.487 24.8578 34.879 24.8578 34.5049 25.2319L26.1667 33.5701C25.3102 34.4266 23.9802 34.4892 23.2065 33.7156C22.4347 32.9437 22.4954 31.6155 23.3538 30.7572L31.692 22.419C32.066 22.0449 32.066 21.4369 31.692 21.0628C31.3179 20.6888 30.7099 20.6888 30.3358 21.0628L21.9976 29.401C21.9976 29.401 21.9976 29.401 21.9976 29.401C20.3944 31.0024 20.3255 33.5469 21.8504 35.0717Z" fill="#2D8AF9" stroke="#2D8AF9" stroke-width="0.1"/>
<path d="M30.7639 38.2955C29.7311 38.2955 28.7783 37.9088 28.065 37.1954C26.5401 35.6706 26.609 33.1261 28.2122 31.5247C28.2122 31.5247 28.2122 31.5247 28.2122 31.5247L34.505 25.232C34.879 24.8579 35.487 24.8579 35.8611 25.232C36.2352 25.6061 36.2352 26.2141 35.8611 26.5882L29.5684 32.8809C28.71 33.7393 28.6493 35.0674 29.4211 35.8393C30.1948 36.6129 31.5248 36.5504 32.3813 35.6938L43.4486 24.6265C43.8227 24.2525 44.4307 24.2525 44.8048 24.6265C45.1788 25.0006 45.1788 25.6086 44.8048 25.9827L33.7375 37.05C32.9724 37.8151 31.966 38.2568 30.9041 38.2937M30.7639 38.2955L30.9039 38.2937C30.9039 38.2937 30.904 38.2937 30.9041 38.2937M30.7639 38.2955H30.7645C30.8096 38.2955 30.8576 38.2955 30.9041 38.2937M30.7639 38.2955L30.9041 38.2937" fill="#2D8AF9" stroke="#2D8AF9" stroke-width="0.1"/>
<path d="M43.0195 26.4118L43.0197 26.4119C43.2075 26.5979 43.453 26.6919 43.6985 26.6919C43.9438 26.6919 44.1896 26.5979 44.374 26.4098C44.3741 26.4097 44.3741 26.4096 44.3742 26.4096L48.3884 22.3954C50.4025 20.3831 50.4024 17.106 48.3884 15.0902L48.3884 15.0901L36.2993 3.00105L36.2992 3.00096C35.9241 2.6278 35.329 2.64444 34.956 3.0136L34.956 3.0136L34.9558 3.01387C34.5827 3.38883 34.5972 4.01133 34.9704 4.38449L47.034 16.4481C48.3 17.7159 48.3 19.7751 47.034 21.0411L43.0195 25.0556C42.6454 25.4297 42.6454 26.0377 43.0195 26.4118Z" fill="#2D8AF9" stroke="#2D8AF9" stroke-width="0.1"/>
</g>
<defs>
<clipPath id="clip0">
<rect width="60" height="60" fill="white"/>
</clipPath>
</defs>
</svg>
