<svg width="60" height="60" viewBox="0 0 60 60" fill="none" xmlns="http://www.w3.org/2000/svg">
<g clip-path="url(#clip0)">
<path d="M26.9961 39.1842C27.4534 38.726 27.4534 37.984 26.9961 37.5257C26.5379 37.0689 25.7963 37.0689 25.3381 37.5257C24.8808 37.984 24.8808 38.726 25.3381 39.1842C25.7963 39.6411 26.5379 39.6411 26.9961 39.1842Z" fill="#2D8AF9"/>
<path d="M27.4229 11.6021V13.9458C27.4229 17.8304 30.5695 20.9771 34.4541 20.9771C38.3314 20.9771 41.4858 17.8231 41.4858 13.9458V11.6021C42.1331 11.6021 42.6577 11.0775 42.6577 10.4302C42.6577 9.7829 42.1331 9.2583 41.4858 9.2583H39.1421C38.4948 9.2583 37.9702 9.7829 37.9702 10.4302C37.9702 11.0775 38.4948 11.6021 39.1421 11.6021V13.9458C39.1421 16.5303 37.0391 18.6333 34.4541 18.6333C31.8654 18.6333 29.7666 16.5354 29.7666 13.9458V11.6021C30.4139 11.6021 30.9385 11.0775 30.9385 10.4302C30.9385 9.7829 30.4139 9.2583 29.7666 9.2583H27.4229C26.7756 9.2583 26.251 9.7829 26.251 10.4302C26.251 11.0775 26.7756 11.6021 27.4229 11.6021Z" fill="#2D8AF9"/>
<path d="M13.6194 57.5322C13.8483 57.7606 14.1476 57.8746 14.4475 57.8746C14.7473 57.8746 15.0472 57.7602 15.276 57.5317L18.8745 53.9333C20.0468 52.7618 20.6113 51.1574 20.4483 49.536L21.7387 48.2899C22.7628 47.303 24.109 46.7592 25.529 46.7592H40.9584C43.7224 46.7592 46.3348 45.6976 48.3142 43.77C48.3435 43.7416 48.371 43.7119 48.3971 43.6803L58.8954 31.0735C60.5635 29.0996 60.314 26.136 58.3383 24.4661C56.3754 22.8117 53.4338 23.0498 51.7607 24.9907L50.6268 26.1635V3.28125C50.6268 2.63397 50.1018 2.10938 49.455 2.10938H19.3364C18.6896 2.10938 18.1645 2.63397 18.1645 3.28125V29.5372C13.6263 30.4898 10.0269 33.3069 8.08823 37.4249C6.5593 37.3457 5.06836 37.9079 3.96195 39.0157L0.345155 42.6146C0.124513 42.8343 0.000459026 43.1328 1.26239e-06 43.4441C-0.000456501 43.7558 0.123598 44.0543 0.343782 44.2744L13.6194 57.5322ZM48.2831 4.45312V28.5869L44.8915 32.0934C44.0186 31.0208 42.6883 30.3525 41.2514 30.3525H27.664C27.589 30.3525 27.5075 30.3351 27.4255 30.3021C25.6 29.5578 23.6668 29.1806 21.6806 29.1806C21.2883 29.1806 20.8974 29.1948 20.5087 29.2204V4.45312H48.2831ZM19.5044 31.6786C21.8752 31.3358 24.2459 31.5372 26.5453 32.4742C26.9106 32.6216 27.2873 32.6967 27.664 32.6967H41.2514C42.5221 32.6967 43.5951 33.7331 43.5951 35.0404C43.5951 36.3327 42.5436 37.3842 41.2514 37.3842H31.0556C30.4088 37.3842 29.8837 37.9088 29.8837 38.5561C29.8837 39.2033 30.4088 39.7279 31.0556 39.7279H41.2514C43.8364 39.7279 45.9389 37.625 45.9389 35.0404C45.9389 34.8335 45.9238 34.628 45.8972 34.4252C46.1417 34.1748 53.2251 26.8488 53.4705 26.5947C53.4883 26.5759 53.5062 26.5567 53.5226 26.537C54.3576 25.551 55.8403 25.4265 56.8268 26.2578C57.8142 27.0923 57.9391 28.5741 57.0996 29.5674L46.6365 42.1321C45.1025 43.6052 43.0884 44.4154 40.9584 44.4154H25.529C23.4988 44.4154 21.5753 45.1918 20.1114 46.6031L19.5946 47.1021C19.3877 46.7839 19.1469 46.4868 18.875 46.2154L11.6771 39.0175C11.2926 38.633 10.8563 38.3134 10.3844 38.0612C12.1747 34.53 15.3726 32.2792 19.5044 31.6786ZM5.61768 40.6746C6.84906 39.4414 8.81699 39.4716 10.0195 40.675L17.2183 47.8734C18.425 49.0778 18.4465 51.048 17.2179 52.2752L14.4466 55.0461L2.83173 43.4468L5.61768 40.6746Z" fill="#2D8AF9"/>
</g>
<defs>
<clipPath id="clip0">
<rect width="60.0001" height="60" fill="white"/>
</clipPath>
</defs>
</svg>
