<svg width="60" height="60" viewBox="0 0 60 60" fill="none" xmlns="http://www.w3.org/2000/svg">
<path d="M31.8973 0.233154C31.4478 0.233154 31.0275 0.454438 30.7731 0.825003C30.0296 1.90779 12.564 27.4933 12.564 40.4338C12.564 51.0941 21.2368 59.7669 31.8971 59.7669C42.5575 59.7669 51.2301 51.0941 51.2301 40.4338C51.2301 27.4933 33.7647 1.90779 33.0212 0.825003C32.7672 0.45462 32.3466 0.233154 31.8973 0.233154ZM31.8973 57.0395C22.7409 57.0395 15.2916 49.5902 15.2916 40.4338C15.2916 30.1412 27.9962 9.99711 31.8973 4.05499C35.7984 9.99711 48.5029 30.1411 48.5029 40.4338C48.5029 49.5902 41.0536 57.0395 31.8973 57.0395Z" fill="#2D8AF9"/>
<path d="M30.5338 52.039C30.5338 52.7922 31.1442 53.4027 31.8975 53.4027C39.0488 53.4027 44.8669 47.585 44.8669 40.4343C44.8669 39.6811 44.2565 39.0706 43.5032 39.0706C42.7499 39.0706 42.1395 39.6811 42.1395 40.4343C42.1395 46.0813 37.5449 50.6753 31.8975 50.6753C31.1442 50.6753 30.5338 51.2859 30.5338 52.039Z" fill="#2D8AF9"/>
<path d="M58.6363 5.75627H55.9864V3.10614C55.9864 2.35301 55.376 1.74243 54.6227 1.74243C53.8694 1.74243 53.259 2.35301 53.259 3.10614V5.75627H50.6088C49.8555 5.75627 49.2451 6.36685 49.2451 7.11998C49.2451 7.87311 49.8555 8.48369 50.6088 8.48369H53.259V11.1338C53.259 11.887 53.8694 12.4975 54.6227 12.4975C55.376 12.4975 55.9864 11.887 55.9864 11.1338V8.48369H58.6363C59.3896 8.48369 60 7.87311 60 7.11998C60 6.36685 59.3896 5.75627 58.6363 5.75627Z" fill="#2D8AF9"/>
<path d="M9.3914 46.8193H6.74126V44.1691C6.74126 43.416 6.13086 42.8054 5.37755 42.8054C4.62424 42.8054 4.01384 43.416 4.01384 44.1691V46.8193H1.36371C0.610395 46.8193 0 47.4298 0 48.183C0 48.9361 0.610395 49.5467 1.36371 49.5467H4.01384V52.1968C4.01384 52.9499 4.62424 53.5605 5.37755 53.5605C6.13086 53.5605 6.74126 52.9499 6.74126 52.1968V49.5467H9.3914C10.1447 49.5467 10.7551 48.9361 10.7551 48.183C10.7551 47.4298 10.1447 46.8193 9.3914 46.8193Z" fill="#2D8AF9"/>
</svg>
