<svg width="60" height="60" viewBox="0 0 60 60" fill="none" xmlns="http://www.w3.org/2000/svg">
<g clip-path="url(#clip0)">
<path d="M36.9196 42.3853H33.6305C33.1451 42.3853 32.7516 42.7788 32.7516 43.2642C32.7516 43.7497 33.1451 44.1431 33.6305 44.1431H36.9196C37.405 44.1431 37.7985 43.7497 37.7985 43.2642C37.7985 42.7788 37.405 42.3853 36.9196 42.3853Z" fill="#2D8AF9"/>
<path d="M56.2794 32.9761L51.4933 31.13L49.0531 28.6898C48.8964 28.5331 48.6945 28.4483 48.4883 28.435V26.4933C49.6384 25.2671 50.457 23.7142 50.7874 21.9649C50.9925 21.9741 51.1995 21.9576 51.4038 21.9159C52.5732 21.6765 53.422 20.5914 53.422 19.3361V18.6952C53.422 17.969 53.1275 17.3024 52.648 16.8258C53.4241 12.6047 52.7849 9.16476 50.791 6.86237C48.8625 4.63545 45.7553 3.57103 41.806 3.78466C38.1572 3.98189 35.8017 5.66072 35.0555 6.27491C34.647 6.32342 33.9511 6.46686 33.2468 6.88944C32.2706 7.47515 31.1071 8.7055 31.1071 11.2406C31.1071 13.4522 31.4605 15.2986 31.7165 16.3462C30.8586 16.764 30.2848 17.6697 30.2848 18.705V19.336C30.2848 20.5913 31.1336 21.6763 32.303 21.9158C32.5072 21.9576 32.7144 21.974 32.9194 21.9647C33.2497 23.7141 34.0685 25.267 35.2185 26.4932V28.4349C35.0122 28.4482 34.8102 28.533 34.6537 28.6897L32.2134 31.1299L27.4274 32.976C27.0134 33.1356 26.6178 33.3426 26.252 33.5912C25.8505 33.864 25.7462 34.4106 26.0189 34.812C26.1889 35.0624 26.4654 35.1971 26.7466 35.1971C26.9167 35.1971 27.0885 35.1478 27.2398 35.0451C27.4949 34.8718 27.7709 34.7274 28.06 34.6159L32.5017 32.9026L35.8978 37.9969C36.3188 38.6284 36.9935 39.0335 37.7488 39.1083C37.8328 39.1166 37.9169 39.1207 38.0003 39.1207C38.4375 39.1207 38.8618 39.0057 39.2372 38.7933L38.5084 55.3247C38.487 55.8097 38.8628 56.2202 39.3479 56.2415C39.361 56.2421 39.3741 56.2423 39.3872 56.2423C39.8548 56.2423 40.2439 55.8738 40.2646 55.4021L40.941 40.0574H42.7656L43.442 55.4021C43.4628 55.8739 43.8519 56.2423 44.3194 56.2423C44.3326 56.2423 44.3457 56.2421 44.3588 56.2415C44.8437 56.2202 45.2196 55.8097 45.1982 55.3247L44.4694 38.7933C44.8449 39.0057 45.269 39.1207 45.7064 39.1207C45.7898 39.1207 45.8738 39.1166 45.9578 39.1083C46.7131 39.0335 47.3878 38.6284 47.8088 37.9969L51.2049 32.9026L55.6467 34.6159C56.2697 34.8561 56.8059 35.2394 57.2276 35.7177L54.1888 38.7565C53.0908 39.8544 52.4863 41.3141 52.4863 42.8666V55.3635C52.4863 55.8489 52.8798 56.2424 53.3652 56.2424C53.8506 56.2424 54.2441 55.8489 54.2441 55.3635V42.8666C54.2441 41.7837 54.6658 40.7653 55.4317 39.9995L58.0986 37.3325C58.2057 37.7255 58.2558 38.1385 58.2389 38.5609L57.5582 55.3279C57.5385 55.813 57.9157 56.2221 58.4006 56.2419C58.4128 56.2423 58.4249 56.2426 58.437 56.2426C58.9058 56.2426 59.2954 55.8721 59.3145 55.3994L59.9954 38.6319C60.0952 36.1447 58.6018 33.8719 56.2794 32.9761ZM34.6399 21.6024C34.4849 20.7585 33.7035 20.1452 32.8601 20.2076C32.7934 20.2124 32.7247 20.2077 32.6556 20.1937C32.3061 20.1222 32.0426 19.7534 32.0426 19.3361V18.7049C32.0426 18.2972 32.3151 17.93 32.6627 17.8689C32.9562 17.8173 33.2372 17.925 33.415 18.1569C33.5763 18.3673 33.7916 18.5178 34.0374 18.5918C34.3974 18.7006 34.7943 18.6367 35.0994 18.4213C35.649 18.0333 36.134 17.5593 36.5407 17.0123C36.8304 16.6227 36.7493 16.0722 36.3599 15.7826C35.9703 15.4929 35.4198 15.5739 35.1301 15.9634C34.9273 16.2362 34.6981 16.4839 34.4458 16.703C34.1671 16.4646 33.8415 16.2924 33.4927 16.194C33.2669 15.329 32.8649 13.4756 32.8649 11.2404C32.8649 9.89426 33.2799 8.94843 34.0982 8.42929C34.7367 8.02417 35.4126 8.008 35.4121 8.00788C35.6367 8.00788 35.8554 7.91941 36.0185 7.76507C36.04 7.74491 38.2006 5.73983 41.9007 5.53979C45.2876 5.35697 47.9023 6.21198 49.462 8.01292C51.034 9.82816 51.5574 12.615 50.9895 16.1031C50.7541 16.0948 50.4964 16.1126 50.2399 16.1554L49.4142 14.1723C49.2457 13.7678 48.8043 13.5494 48.3803 13.6599C48.2987 13.6812 40.1821 15.7388 36.7789 11.5017C36.475 11.1233 35.9219 11.0629 35.5432 11.3668C35.1648 11.6708 35.1044 12.224 35.4085 12.6025C38.8838 16.9293 45.7796 15.988 48.0751 15.529L48.7136 17.0624C48.9882 17.7216 49.6906 18.0816 50.383 17.9184C50.6672 17.8514 50.9387 17.8499 51.0406 17.8701C51.3961 17.9409 51.6641 18.2953 51.6641 18.695V19.336C51.6641 19.7534 51.4005 20.1221 51.0511 20.1936C50.982 20.2077 50.913 20.2124 50.8466 20.2075C50.0033 20.1461 49.2219 20.7583 49.0667 21.6024C48.4273 25.0833 45.3937 27.6099 41.8533 27.6099C38.313 27.6099 35.2793 25.0833 34.6399 21.6024ZM38.5389 37.1387C38.316 37.3616 38.0569 37.3725 37.9221 37.3591C37.7875 37.3459 37.5354 37.2842 37.3606 37.022L33.9393 31.8901L35.3152 30.5142L40.5675 35.1101L38.5389 37.1387ZM41.0185 38.2997L41.0717 37.0917L41.8532 36.3102L42.6347 37.0917L42.6879 38.2997H41.0185ZM41.8533 33.8993L36.9763 29.6319V27.9498C38.3943 28.8515 40.072 29.3677 41.8533 29.3677C43.6347 29.3677 45.3125 28.8515 46.7305 27.9498V29.6319L41.8533 33.8993ZM46.3463 37.022C46.1714 37.2844 45.9193 37.3459 45.7848 37.3591C45.6499 37.3725 45.3908 37.3616 45.1679 37.1386L43.1392 35.1099L48.3916 30.5141L49.7675 31.89L46.3463 37.022Z" fill="#2D8AF9"/>
<path d="M27.8727 37.582L23.581 35.7087L21.235 33.3628C21.0779 33.2055 20.8758 33.1211 20.6702 33.108V31.7253C22.6751 30.4077 24.1423 28.3123 24.6138 25.8154C24.8446 25.8257 25.0777 25.8035 25.3074 25.7493C26.4321 25.4832 27.2483 24.4054 27.2483 23.1866V22.5458C27.2483 21.6554 26.8065 20.8545 26.122 20.3845C26.3233 19.587 26.426 18.771 26.426 17.9496C26.426 14.3083 24.4577 11.1011 21.4908 9.25965C21.4592 6.22061 18.8652 3.75732 15.6797 3.75732C12.4942 3.75732 9.90024 6.22061 9.8686 9.25965C6.90187 11.1011 4.93358 14.3085 4.93358 17.9496C4.93358 18.7685 5.03553 19.5822 5.23569 20.3775C4.55155 20.8451 4.11127 21.6498 4.11127 22.5554V23.1866C4.11127 24.4054 4.92748 25.4832 6.05214 25.7493C6.28183 25.8037 6.5148 25.8257 6.74577 25.8154C7.21722 28.3123 8.68453 30.4077 10.6895 31.7253V33.108C10.4838 33.1211 10.2818 33.2055 10.1247 33.3628L7.77867 35.7087L3.48713 37.582C1.30356 38.5352 -0.0956593 40.7749 0.0052395 43.1553L0.524265 55.4007C0.544304 55.8729 0.933485 56.2424 1.40177 56.2424C1.41431 56.2424 1.42696 56.2422 1.43962 56.2416C1.92466 56.2211 2.30107 55.8113 2.28056 55.3262L1.76142 43.0808C1.72802 42.2918 1.9331 41.5262 2.31865 40.8672L4.62549 43.6355C5.35452 44.5103 5.75589 45.6191 5.75589 46.7577V55.3635C5.75589 55.8489 6.1494 56.2424 6.6348 56.2424C7.12019 56.2424 7.51371 55.8489 7.51371 55.3635V46.7577C7.51371 45.2087 6.96749 43.7003 5.97585 42.5102L3.52346 39.5673C3.73193 39.4236 3.95354 39.2963 4.19037 39.193L7.93054 37.5603L10.5736 41.8504C10.8346 42.2741 11.2661 42.5613 11.7576 42.6386C11.8459 42.6526 11.9345 42.6594 12.0227 42.6594C12.4246 42.6594 12.816 42.517 13.1263 42.2522L14.8012 40.8231V55.3634C14.8012 55.8488 15.1947 56.2423 15.6801 56.2423C16.1655 56.2423 16.559 55.8488 16.559 55.3634V40.8233L18.2337 42.2524C18.544 42.5172 18.9354 42.6596 19.3373 42.6596C19.4254 42.6596 19.5141 42.6527 19.6025 42.6389C20.0939 42.5615 20.5254 42.2743 20.7864 41.8507L23.4295 37.5604L27.1696 39.1931C27.4064 39.2964 27.6281 39.4237 27.8366 39.5674L25.3842 42.5103C24.3925 43.7003 23.8463 45.2088 23.8463 46.7578V55.3636C23.8463 55.849 24.2398 56.2425 24.7252 56.2425C25.2106 56.2425 25.6041 55.849 25.6041 55.3636V46.7578C25.6041 45.6192 26.0056 44.5104 26.7345 43.6356L29.0414 40.8674C29.4269 41.5263 29.632 42.2919 29.5986 43.0809L29.0796 55.3264C29.0591 55.8113 29.4355 56.2211 29.9205 56.2417C29.9332 56.2423 29.9457 56.2425 29.9584 56.2425C30.4266 56.2425 30.8158 55.8732 30.8359 55.4008L31.3549 43.1554C31.4557 40.775 30.0563 38.5352 27.8727 37.582ZM15.6799 5.51514C17.5498 5.51514 19.1274 6.708 19.5939 8.32426C18.3805 7.86629 17.0603 7.61445 15.6799 7.61445C14.2996 7.61445 12.9794 7.86629 11.766 8.32426C12.2325 6.708 13.81 5.51514 15.6799 5.51514ZM8.46644 25.4532C8.31152 24.609 7.52882 23.9959 6.68671 24.0583C6.61206 24.0635 6.53495 24.0572 6.45714 24.0387C6.12198 23.9594 5.86921 23.593 5.86921 23.1866V22.5554C5.86921 22.1477 6.14167 21.7805 6.48937 21.7194C6.7828 21.6679 7.0637 21.7757 7.24136 22.0074C7.40273 22.2178 7.618 22.3683 7.86398 22.4426C8.22387 22.5513 8.62102 22.4875 8.92594 22.272C9.46723 21.8899 9.94583 21.4242 10.3485 20.888C10.6399 20.4999 10.5615 19.9488 10.1734 19.6575C9.78516 19.3661 9.23426 19.4445 8.94281 19.8326C8.74348 20.098 8.51906 20.3393 8.27226 20.5536C7.89621 20.2321 7.43507 20.0307 6.94593 19.9697C6.77753 19.3077 6.6914 18.6307 6.6914 17.9497C6.6914 13.2203 10.7236 9.37239 15.6799 9.37239C20.6362 9.37239 24.6684 13.2201 24.6684 17.9497C24.6684 18.6294 24.5827 19.305 24.4149 19.9658C24.1836 19.9842 23.9485 20.0221 23.7309 20.0786L23.0702 19.5353C22.7382 19.2622 22.3203 19.1256 21.8974 19.1508C20.6055 19.2271 13.9893 19.4018 10.5948 15.3394C10.2836 14.9669 9.72938 14.9173 9.35684 15.2285C8.9843 15.5398 8.93473 16.0941 9.24598 16.4665C10.9201 18.47 13.3756 19.8248 16.544 20.4933C18.9699 21.005 21.1264 20.9554 21.9713 20.9072L23.0021 21.7548C23.2858 21.9881 23.6837 22.0211 24.0013 21.8361C24.1504 21.7549 24.6496 21.6774 24.8675 21.7208C25.2229 21.7915 25.4908 22.1461 25.4908 22.5458V23.1866C25.4908 23.5931 25.238 23.9595 24.9029 24.0387C24.8252 24.0571 24.748 24.0638 24.6733 24.0581C23.8317 23.997 23.0485 24.609 22.8935 25.453C22.2541 28.9341 19.2204 31.4607 15.6801 31.4607C12.1396 31.4607 9.10582 28.9341 8.46644 25.4532ZM12.0355 40.8723L9.39199 36.5813L10.7462 35.2271L14.3858 38.8667L12.0355 40.8723ZM15.6799 37.6748L12.4474 34.4423V32.624C13.4565 33.0081 14.547 33.2185 15.6799 33.2185C16.8129 33.2185 17.9034 33.0081 18.9125 32.6241V34.4423L15.6799 37.6748ZM19.3244 40.8723L16.9741 38.8667L20.6137 35.2271L21.9679 36.5813L19.3244 40.8723Z" fill="#2D8AF9"/>
<path d="M12.3906 46.2617H9.92383C9.43844 46.2617 9.04492 46.6552 9.04492 47.1406C9.04492 47.626 9.43844 48.0195 9.92383 48.0195H12.3906C12.876 48.0195 13.2695 47.626 13.2695 47.1406C13.2695 46.6552 12.876 46.2617 12.3906 46.2617Z" fill="#2D8AF9"/>
</g>
<defs>
<clipPath id="clip0">
<rect width="60" height="60" fill="white"/>
</clipPath>
</defs>
</svg>
