<svg width="30" height="30" viewBox="0 0 30 30" fill="none" xmlns="http://www.w3.org/2000/svg">
<g clip-path="url(#clip0)">
<path d="M24.1112 30.0004C22.863 30.0004 21.3555 29.6876 19.6976 29.062C16.063 27.6917 12.1086 24.9835 8.56279 21.4377C5.01599 17.8909 2.3077 13.9354 0.936408 10.3008C-0.309766 6.99618 -0.312793 4.28386 0.929345 3.04273C1.10795 2.86413 1.28958 2.67241 1.47726 2.47463C2.61042 1.28295 3.8909 -0.0580772 5.58812 0.00246563C6.75761 0.0508999 7.89077 0.777414 9.05117 2.22136C12.4799 6.4856 10.9341 8.00522 9.14501 9.76702L8.82918 10.0798C8.53656 10.3724 7.9836 11.7276 13.1277 16.8717C14.8068 18.5508 16.2386 19.7798 17.3829 20.5235C18.1033 20.9917 19.3919 21.7 19.9206 21.1713L20.2385 20.8504C21.9983 19.0654 23.5179 17.5246 27.7791 20.9503C29.223 22.1107 29.9486 23.2429 29.997 24.4144C30.0666 26.1106 28.7155 27.3941 27.5228 28.5262C27.326 28.7139 27.1343 28.8955 26.9557 29.0731C26.3392 29.6907 25.3533 30.0004 24.1112 30.0004ZM5.46703 1.0095C4.26122 1.0095 3.17246 2.15577 2.20882 3.16987C2.01508 3.37369 1.8274 3.57147 1.64274 3.75612C0.717445 4.68041 0.811286 7.10919 1.88088 9.94562C3.20273 13.449 5.82928 17.2774 9.2772 20.7253C12.7241 24.1712 16.5504 26.7977 20.0548 28.1186C22.8913 29.1902 25.32 29.281 26.2433 28.3577C26.428 28.1731 26.6258 27.9854 26.8296 27.7926C27.8659 26.8078 29.0414 25.6918 28.99 24.4537C28.9546 23.6031 28.3351 22.6879 27.1484 21.7343C23.5976 18.8787 22.6047 19.8868 20.9579 21.5567L20.635 21.8827C19.848 22.6707 18.5695 22.4962 16.834 21.368C15.6302 20.585 14.1428 19.3116 12.4153 17.5831C8.14606 13.3148 6.78081 10.7024 8.11679 9.3634L8.43868 9.04555C10.1127 7.39879 11.1227 6.40487 8.26613 2.85202C7.31056 1.66639 6.39637 1.04683 5.54574 1.0105C5.5195 1.0095 5.49327 1.0095 5.46703 1.0095Z" fill="white"/>
</g>
<defs>
<clipPath id="clip0">
<rect width="30" height="30" fill="white" transform="translate(0 0.000488281)"/>
</clipPath>
</defs>
</svg>
