<svg width="85" height="85" viewBox="0 0 85 85" fill="none" xmlns="http://www.w3.org/2000/svg">
<path d="M44.5448 42.7121V43.2121H45.0448H49.0562C49.9464 43.2121 50.6768 43.9425 50.6768 44.8327C50.6768 45.7229 49.9464 46.4533 49.0562 46.4533H40.5032C38.4599 46.4533 36.8046 48.1085 36.8046 50.1518C36.8046 52.1951 38.4599 53.8504 40.5032 53.8504H45.3629C49.1865 53.8504 52.3026 56.9664 52.3026 60.7901C52.3026 64.5807 49.2541 67.6787 45.4655 67.7298H45.4655H45.4654H45.4653H45.4651H45.465H45.4649H45.4648H45.4647H45.4646H45.4645H45.4644H45.4643H45.4642H45.4641H45.464H45.4639H45.4638H45.4637H45.4636H45.4635H45.4634H45.4633H45.4632H45.4631H45.463H45.4629H45.4628H45.4627H45.4626H45.4625H45.4624H45.4622H45.4621H45.462H45.4619H45.4618H45.4617H45.4616H45.4615H45.4614H45.4613H45.4612H45.4611H45.461H45.4609H45.4608H45.4607H45.4606H45.4605H45.4604H45.4603H45.4602H45.4601H45.46H45.4599H45.4598H45.4597H45.4596H45.4595H45.4594H45.4592H45.4591H45.459H45.4589H45.4588H45.4587H45.4586H45.4585H45.4584H45.4583H45.4582H45.4581H45.458H45.4579H45.4578H45.4577H45.4576H45.4575H45.4574H45.4573H45.4572H45.4571H45.457H45.4569H45.4568H45.4567H45.4566H45.4565H45.4563H45.4562H45.4561H45.456H45.4559H45.4558H45.4557H45.4556H45.4555H45.4554H45.4553H45.4552H45.4551H45.455H45.4549H45.4548H45.4547H45.4546H45.4545H45.4544H45.4543H45.4542H45.4541H45.454H45.4539H45.4538H45.4537H45.4536H45.4534H45.4533H45.4532H45.4531H45.453H45.4529H45.4528H45.4527H45.4526H45.4525H45.4524H45.4523H45.4522H45.4521H45.452H45.4519H45.4518H45.4517H45.4516H45.4515H45.4514H45.4513H45.4512H45.4511H45.451H45.4509H45.4508H45.4507H45.4506H45.4504H45.4503H45.4502H45.4501H45.45H45.4499H45.4498H45.4497H45.4496H45.4495H45.4494H45.4493H45.4492H45.4491H45.449H45.4489H45.4488H45.4487H45.4486H45.4485H45.4484H45.4483H45.4482H45.4481H45.448H45.4479H45.4478H45.4477H45.4475H45.4474H45.4473H45.4472H45.4471H45.447H45.4469H45.4468H45.4467H45.4466H45.4465H45.4464H45.4463H45.4462H45.4461H45.446H45.4459H45.4458H45.4457H45.4456H45.4455H45.4454H45.4453H45.4452H45.4451H45.445H45.4449H45.4448H45.4446H45.4445H45.4444H45.4443H45.4442H45.4441H45.444H45.4439H45.4438H45.4437H45.4436H45.4435H45.4434H45.4433H45.4432H45.4431H45.443H45.4429H45.4428H45.4427H45.4426H45.4425H45.4424H45.4423H45.4422H45.4421H45.442H45.4419H45.4417H45.4416H45.4415H45.4414H45.4413H45.4412H45.4411H45.441H45.4409H45.4408H45.4407H45.4406H45.4405H45.4404H45.4403H45.4402H45.4401H45.44H45.4399H45.4398H45.4397H45.4396H45.4395H45.4394H45.4393H45.4392H45.4391H45.439H45.4389H45.4387H45.4386H45.4385H45.4384H45.4383H45.4382H45.4381H45.438H45.4379H45.4378H45.4377H45.4376H45.4375H45.4374H45.4373H45.4372H45.4371H45.437H45.4369H45.4368H45.4367H45.4366H45.4365H45.4364H45.4363H45.4362H45.4361H45.436H45.4358H45.4357H45.4356H45.4355H45.4354H45.4353H45.4352H45.4351H45.435H45.4349H45.4348H45.4347H45.4346H45.4345H45.4344H45.4343H45.4342H45.4341H45.434H45.4339H45.4338H45.4337H45.4336H45.4335H45.4334H45.4333H45.4332H45.4331H45.4329H45.4328H45.4327H45.4326H45.4325H45.4324H45.4323H45.4322H45.4321H45.432H45.4319H45.4318H45.4317H45.4316H45.4315H45.4314H45.4313H45.4312H45.4311H45.431H45.4309H45.4308H45.4307H45.4306H45.4305H45.4304H45.4303H45.4302H45.43H45.4299H45.4298H45.4297H45.4296H45.4295H45.4294H45.4293H45.4292H45.4291H45.429H45.4289H45.4288H45.4287H45.4286H45.4285H45.4284H45.4283H45.4282H45.4281H45.428H45.4279H45.4278H45.4277H45.4276H45.4275H45.4274H45.4273H45.4272H45.427H45.4269H45.4268H45.4267H45.4266H45.4265H45.4264H45.4263H45.4262H45.4261H45.426H45.4259H45.4258H45.4257H45.4256H45.4255H45.4254H45.4253H45.4252H45.4251H45.425H45.4249H45.4248H45.4247H45.4246H45.4245H45.4244H45.4243H45.4241H45.424H45.4239H45.4238H45.4237H45.4236H45.4235H45.4234H45.4233H45.4232H45.4231H45.423H45.4229H45.4228H45.4227H45.4226H45.4225H45.4224H45.4223H45.4222H45.4221H45.422H45.4219H45.4218H45.4217H45.4216H45.4215H45.4214H45.4212H45.4211H45.421H45.4209H45.4208H45.4207H45.4206H45.4205H45.4204H45.4203H45.4202H45.4201H45.42H45.4199H45.4198H45.4197H45.4196H45.4195H45.4194H45.4193H45.4192H45.4191H45.419H45.4189H45.4188H45.4187H45.4186H45.4185H45.4184H45.4182H45.4181H45.418H45.4179H45.4178H45.4177H45.4176H45.4175H45.4174H45.4173H45.4172H45.4171H45.417H45.4169H45.4168H45.4167H45.4166H45.4165H45.4164H45.4163H45.4162H45.4161H45.416H45.4159H45.0624H44.5624V68.2298V71.2516C44.5624 72.1418 43.832 72.8722 42.9419 72.8722C42.0517 72.8722 41.3213 72.1418 41.3213 71.2516V68.2298V67.7298H40.8213H36.6508C35.7606 67.7298 35.0302 66.9994 35.0302 66.1092C35.0302 65.219 35.7606 64.4886 36.6508 64.4886H45.3629C47.4061 64.4886 49.0614 62.8334 49.0614 60.7901C49.0614 58.7468 47.4061 57.0915 45.3629 57.0915H40.5032C36.6795 57.0915 33.5635 53.9755 33.5635 50.1518C33.5635 46.3282 36.6795 43.2121 40.5032 43.2121H40.8036H41.3036V42.7121V39.761C41.3036 38.8708 42.034 38.1404 42.9242 38.1404C43.8144 38.1404 44.5448 38.8708 44.5448 39.761V42.7121Z" fill="#2D8AF9" stroke="#EAF4FF"/>
<path d="M75.2329 68.5467C75.2327 57.0704 71.0466 46.234 62.8007 36.2961C57.6029 30.0126 52.334 26.0954 50.7015 24.9652L50.5731 24.8763H50.4169H34.5479H34.3882L34.2581 24.9688C32.6501 26.1123 27.3628 30.0114 22.1637 36.2967C13.9358 46.2343 9.73189 57.0886 9.73189 68.5478C9.73189 75.5568 15.4339 81.2588 22.4429 81.2588H62.5573C69.5653 81.2588 75.2689 75.5575 75.2329 68.5467ZM75.2329 68.5467C75.2329 68.5471 75.2329 68.5474 75.2329 68.5478H74.7329L75.2329 68.5452C75.2329 68.5457 75.2329 68.5462 75.2329 68.5467ZM65.2299 34.1252L65.2309 34.1264C69.0895 38.7391 72.1384 43.6642 74.345 48.7429C77.1106 55.132 78.5094 61.7971 78.5094 68.5478C78.5094 77.3372 71.3466 84.5 62.5573 84.5H22.4429C13.6536 84.5 6.49072 77.3372 6.49072 68.5478C6.49072 61.7971 7.88956 55.1319 10.6551 48.7429C12.8614 43.6649 15.928 38.7395 19.77 34.1256C24.3501 28.633 28.9128 24.9131 31.294 23.1447L31.6743 22.8623L31.4129 22.4673L21.694 7.78292C21.6939 7.78275 21.6938 7.78258 21.6936 7.78242C21.275 7.14725 21.3577 6.29423 21.882 5.75653L21.8822 5.75634C25.1134 2.43871 28.3658 0.924116 32.1622 0.924116C35.1927 0.924116 38.3523 1.84813 42.5536 3.38375C42.9362 3.53178 43.3156 3.59252 43.7371 3.59252C44.426 3.59252 45.166 3.4142 45.9111 3.16733C46.605 2.93744 47.3374 2.63602 48.07 2.3345C48.1263 2.3113 48.1827 2.2881 48.2391 2.26496L48.243 2.26331C50.2675 1.41089 52.4936 0.5 54.9055 0.5C57.5075 0.5 59.8614 1.54382 62.1194 3.75052L62.1194 3.75056L62.1248 3.75566C62.643 4.24736 62.7573 5.02502 62.4169 5.66629C62.4167 5.66669 62.4165 5.66708 62.4162 5.66748L53.4051 22.3823L53.1986 22.7654L53.5495 23.0227C55.912 24.7552 60.5621 28.5098 65.2299 34.1252ZM25.474 6.79593L25.1405 7.08346L25.3836 7.45064L34.6258 21.4111L34.7741 21.6351H35.0427H49.8161H50.1148L50.2564 21.3721L58.7387 5.60907L58.9484 5.21944L58.5872 4.96393C57.0381 3.86827 55.7833 3.70582 54.8878 3.70582C53.1119 3.70582 51.3051 4.46024 49.5333 5.20008L49.4644 5.22882L49.4632 5.22933C47.5577 6.0307 45.6701 6.79834 43.7194 6.79834C42.9273 6.79834 42.1553 6.66643 41.4355 6.40489C37.675 5.01021 34.7712 4.12994 32.1622 4.12994C29.6755 4.12994 27.6013 4.96205 25.474 6.79593Z" fill="#2D8AF9" stroke="#EAF4FF"/>
</svg>
