<svg width="85" height="85" viewBox="0 0 85 85" fill="none" xmlns="http://www.w3.org/2000/svg">
<g clip-path="url(#clip0)">
<path d="M38.5333 8.50098H8.50039C7.718 8.50098 7.08374 9.13523 7.08374 9.91763C7.08374 10.7 7.718 11.3343 8.50039 11.3343H38.5333C39.3157 11.3343 39.95 10.7 39.95 9.91763C39.95 9.13523 39.3157 8.50098 38.5333 8.50098Z" fill="#2D8AF9" stroke="#EAF4FF" stroke-width="0.5"/>
<path d="M35.1333 15.3H8.50039C7.718 15.3 7.08374 15.9343 7.08374 16.7167C7.08374 17.4991 7.718 18.1333 8.50039 18.1333H35.1333C35.9157 18.1333 36.55 17.4991 36.55 16.7167C36.55 15.9343 35.9157 15.3 35.1333 15.3Z" fill="#2D8AF9" stroke="#EAF4FF" stroke-width="0.5"/>
<path d="M28.4206 22.1001H8.50039C7.718 22.1001 7.08374 22.7344 7.08374 23.5167C7.08374 24.2991 7.71799 24.9334 8.50039 24.9334H28.4206C29.203 24.9334 29.8373 24.2991 29.8373 23.5167C29.8373 22.7344 29.203 22.1001 28.4206 22.1001Z" fill="#2D8AF9" stroke="#EAF4FF" stroke-width="0.5"/>
<path d="M83.5828 82.1667H1.41714C0.634744 82.1667 0.000488281 82.801 0.000488281 83.5834C0.000488281 84.3658 0.634742 85 1.41714 85H83.5828C84.3652 85 84.9994 84.3658 84.9994 83.5834C84.9994 82.801 84.3652 82.1667 83.5828 82.1667Z" fill="#2D8AF9" stroke="#EAF4FF" stroke-width="0.5"/>
<path d="M82.0173 12.1178L76.3507 0.784567C76.0014 0.0843882 75.1508 -0.200004 74.4507 0.149377C74.4503 0.149554 74.45 0.149731 74.4496 0.149908L63.1164 5.8165C62.4162 6.16624 62.132 7.01747 62.4817 7.71765C62.8315 8.41783 63.6827 8.70204 64.3829 8.35231L72.591 4.25111L70.3512 10.6459C60.5068 38.6828 35.1507 58.3522 5.54663 60.9171L5.78746 63.7504C36.507 61.0892 62.8171 40.6758 73.0273 11.5808L75.3138 5.04726L79.4815 13.3842C79.8313 14.0844 80.6825 14.3686 81.3827 14.0189C82.083 13.6692 82.3671 12.8181 82.0173 12.1178Z" fill="#2D8AF9"/>
<path d="M17.0002 68.0002H7.08364C6.3013 68.0002 5.66699 68.6345 5.66699 69.4169V77.9168C5.66699 78.6991 6.3013 79.3334 7.08364 79.3334H17.0002C17.7825 79.3334 18.4168 78.6991 18.4168 77.9168V69.4169C18.4168 68.6345 17.7825 68.0002 17.0002 68.0002ZM15.5835 76.5001H8.50029V70.8335H15.5835V76.5001Z" fill="#2D8AF9" stroke="#EAF4FF" stroke-width="0.5"/>
<path d="M32.5834 63.7502H22.6669C21.8845 63.7502 21.2502 64.3845 21.2502 65.1669V77.9167C21.2502 78.6991 21.8845 79.3334 22.6669 79.3334H32.5834C33.3658 79.3334 34.0001 78.6991 34.0001 77.9167V65.1669C34.0001 64.3845 33.3658 63.7502 32.5834 63.7502ZM31.1668 76.5001H24.0835V66.5835H31.1668V76.5001Z" fill="#2D8AF9" stroke="#EAF4FF" stroke-width="0.5"/>
<path d="M48.1667 56.667H38.2501C37.4678 56.667 36.8335 57.3013 36.8335 58.0836V77.9167C36.8335 78.6991 37.4678 79.3334 38.2501 79.3334H48.1667C48.949 79.3334 49.5833 78.6991 49.5833 77.9167V58.0836C49.5833 57.3013 48.949 56.667 48.1667 56.667ZM46.75 76.5001H39.6668V59.5003H46.75V76.5001Z" fill="#2D8AF9" stroke="#EAF4FF" stroke-width="0.5"/>
<path d="M63.7497 46.7505H53.8332C53.0508 46.7505 52.4165 47.3848 52.4165 48.1671V77.9168C52.4165 78.6991 53.0508 79.3334 53.8332 79.3334H63.7497C64.532 79.3334 65.1663 78.6991 65.1663 77.9168V48.1671C65.1663 47.3848 64.532 46.7505 63.7497 46.7505ZM62.333 76.5001H55.2498V49.5838H62.333V76.5001Z" fill="#2D8AF9" stroke="#EAF4FF" stroke-width="0.5"/>
<path d="M79.3329 26.9175H69.4164C68.6341 26.9175 67.9998 27.5518 67.9998 28.3341V77.9168C67.9998 78.6992 68.6341 79.3335 69.4164 79.3335H79.3329C80.1153 79.3335 80.7496 78.6992 80.7496 77.9168V28.3341C80.7496 27.5518 80.1153 26.9175 79.3329 26.9175ZM77.9163 76.5002H70.8331V29.7508H77.9163V76.5002Z" fill="#2D8AF9" stroke="#EAF4FF" stroke-width="0.5"/>
</g>
<defs>
<clipPath id="clip0">
<rect width="85" height="85" fill="white"/>
</clipPath>
</defs>
</svg>
