<svg width="85" height="85" viewBox="0 0 85 85" fill="none" xmlns="http://www.w3.org/2000/svg">
<path d="M70.1421 44.926C69.4589 44.926 68.9051 45.4799 68.9051 46.163C68.9051 47.0291 68.2005 47.7337 67.3344 47.7337C66.4685 47.7337 65.7638 47.0291 65.7638 46.163C65.7638 45.4797 65.2099 44.926 64.5268 44.926C63.8436 44.926 63.2898 45.4799 63.2898 46.163C63.2898 48.3933 65.1043 50.2076 67.3344 50.2076C69.5645 50.2076 71.3791 48.3931 71.3791 46.163C71.3791 45.4795 70.8252 44.926 70.1421 44.926Z" fill="#2D8AF9"/>
<path d="M81.7534 45.128L78.2717 44.0127C77.8258 43.8697 77.4743 43.5138 77.3317 43.0604C76.5979 40.7274 75.4906 38.5372 74.0405 36.5503C73.3796 35.6447 72.6446 34.7799 71.8418 33.9566C72.3554 31.7033 72.6347 29.1531 72.5985 26.9499C72.5467 23.7981 71.9168 21.9495 70.673 21.2981C70.0031 20.9468 67.9645 19.8797 56.9299 24.9308C56.6686 25.0504 56.4246 25.1976 56.1986 25.3663C55.4547 25.1664 54.6943 24.9815 53.9293 24.8155C53.8372 24.7954 53.7422 24.7776 53.6494 24.758C54.5436 22.8047 55.0657 20.6832 55.1638 18.4931C55.1944 17.8104 54.666 17.2324 53.9833 17.202C53.3025 17.1681 52.7226 17.6997 52.6922 18.3824C52.531 21.9834 51.0372 25.3716 48.4862 27.9228C46.962 29.447 45.1773 30.5541 43.2753 31.2514C39.9767 30.7885 36.6169 30.7885 33.3183 31.2514C31.4161 30.5541 29.6316 29.447 28.1074 27.9228C25.3858 25.2011 23.8868 21.5825 23.8868 17.7334C23.8868 13.8842 25.3858 10.2657 28.1074 7.54403C30.8291 4.82221 34.4479 3.32325 38.2968 3.32325C42.1457 3.32325 45.7645 4.82221 48.4862 7.54403C49.5799 8.63774 50.4837 9.88585 51.1725 11.2533C51.4798 11.8636 52.2237 12.1093 52.8338 11.8018C53.4441 11.4947 53.6896 10.7508 53.3823 10.1407C52.575 8.53714 51.5163 7.07504 50.2358 5.79439C47.0468 2.6054 42.8068 0.849121 38.297 0.849121C33.7872 0.849121 29.5471 2.6054 26.3581 5.79439C23.1691 8.98355 21.4129 13.2234 21.4129 17.7332C21.4129 22.2431 23.1691 26.4831 26.3581 29.6721C27.278 30.592 28.2788 31.383 29.3373 32.0458C29.3376 32.0458 29.3379 32.0456 29.3383 32.0456C28.5691 32.2455 27.8058 32.4699 27.0509 32.7223C26.403 32.9389 26.0533 33.6397 26.27 34.2878C26.4865 34.9358 27.1875 35.2854 27.8353 35.0689C34.5816 32.8136 42.0124 32.8136 48.7586 35.0689C48.8888 35.1124 49.0209 35.133 49.1509 35.133C49.6684 35.133 50.1508 34.8056 50.324 34.2878C50.5406 33.6399 50.191 32.9389 49.543 32.7223C48.7882 32.4699 48.0248 32.2453 47.2557 32.0456C47.256 32.0456 47.2563 32.0458 47.2567 32.0458C48.3154 31.383 49.3159 30.592 50.2358 29.6721C51.0496 28.8583 51.768 27.9696 52.3917 27.0251C52.7327 27.0914 53.0712 27.1608 53.4047 27.2332C53.849 27.3296 54.2913 27.4332 54.7295 27.5419C54.7158 27.5957 54.7017 27.6494 54.6902 27.704C54.0869 30.5669 54.1261 33.099 54.8066 35.2295C55.4182 37.1444 56.522 38.6959 58.087 39.8409C59.9316 41.1903 62.1586 41.7731 64.1758 41.7731C65.694 41.7731 67.0937 41.4428 68.1217 40.8605C69.2845 40.202 70.2586 38.8142 71.0298 36.7307C71.3862 37.1468 71.7241 37.5729 72.0425 38.0092C73.3336 39.778 74.3192 41.7273 74.972 43.8028C75.3553 45.0219 76.3069 45.9811 77.5173 46.3691L80.999 47.4844C81.9126 47.7771 82.5264 48.618 82.5264 49.5772V55.3504C82.5264 56.3096 81.9126 57.1505 80.999 57.4432L75.3895 59.24C74.492 59.5277 73.7325 60.1444 73.2509 60.9768C71.0471 64.7855 67.5821 67.9374 62.9518 70.3447C62.4169 70.6232 62.0463 71.121 61.9348 71.7111L60.1382 81.2243C60.0885 81.4864 59.8589 81.6765 59.5921 81.6765H53.7505C53.4838 81.6765 53.2542 81.4862 53.2045 81.2243L52.2094 75.9667C52.0135 74.9323 51.0433 74.2451 49.9991 74.4033C47.4828 74.7838 44.89 74.9766 42.293 74.9766C40.3609 74.9766 38.4535 74.8688 36.6235 74.6562C35.6117 74.5398 34.669 75.2296 34.4799 76.2287L33.5343 81.2243C33.4847 81.4864 33.2551 81.6765 32.9883 81.6765H27.1467C26.8799 81.6765 26.6503 81.4862 26.6 81.2203L24.8701 72.2352C24.7587 71.6563 24.3952 71.164 23.8721 70.8846C15.979 66.671 11.807 59.6313 11.807 50.527C11.807 45.927 12.8134 41.8595 14.7981 38.4369C16.6502 35.2429 19.3553 32.6021 22.8381 30.5875C23.4295 30.2453 23.6315 29.4886 23.2895 28.8971C22.9475 28.3058 22.1908 28.1041 21.5993 28.4457C14.8459 32.3524 10.7728 38.3794 9.65132 46.0344V46.0343C9.53228 46.0235 9.41309 46.0132 9.29438 46.0009C9.31597 45.175 9.16655 44.3416 8.84116 43.5327C8.12348 41.7487 6.64926 40.4611 5.08522 40.2524C3.85272 40.0874 2.67982 40.6107 1.86585 41.6861C0.685645 43.2457 0.878057 44.4799 1.24711 45.2405C1.87017 46.5243 3.47172 47.4324 6.12946 48.0034C6.05642 48.1128 5.97606 48.2227 5.88808 48.3331C4.31773 50.3025 2.46766 50.738 1.26637 50.779C0.563125 50.8027 0 51.3673 0 52.0711V52.0771C0 52.7712 0.547686 53.3373 1.24113 53.369C1.32995 53.3731 1.42275 53.3753 1.51938 53.3753C3.03941 53.3753 5.47901 52.8147 7.82282 49.8757C8.19287 49.4118 8.49436 48.9224 8.72611 48.4167C8.95953 48.4431 9.18382 48.4657 9.39864 48.4856C9.39864 48.4851 9.39864 48.4848 9.39881 48.4843C9.35664 49.1547 9.33323 49.8349 9.33323 50.527C9.33323 55.6781 10.5613 60.2709 12.9829 64.1784C15.2158 67.781 18.4128 70.7307 22.4881 72.949L24.1699 81.6841C24.4403 83.1132 25.6922 84.1504 27.1467 84.1504H32.9883C34.4428 84.1504 35.6947 83.1132 35.9651 81.6841L36.8201 77.1672C38.5958 77.3553 40.4343 77.4506 42.2928 77.4506C44.8428 77.4506 47.3898 77.2729 49.8721 76.9223L50.7734 81.6844C51.044 83.1135 52.2959 84.1506 53.7502 84.1506H59.5918C61.0463 84.1506 62.2982 83.1133 62.5688 81.6838L64.3181 72.4216C69.2601 69.8084 72.9851 66.3755 75.392 62.2158C75.5655 61.916 75.8326 61.696 76.1441 61.5962L81.7534 59.7994C83.6953 59.177 85 57.3892 85 55.3501V49.5769C85 47.5379 83.6953 45.75 81.7534 45.128ZM69.9387 30.4261C69.4626 34.4978 68.1854 37.9808 66.9021 38.7077C65.4435 39.5339 62.0759 39.6935 59.5475 37.8439C57.0161 35.9921 56.1735 32.6622 57.1107 28.214C57.1107 28.2138 57.1107 28.2138 57.1107 28.2138C57.2048 27.7671 57.5223 27.3806 57.9597 27.1804C64.1528 24.3455 67.7233 23.4183 69.0497 23.4183C69.2499 23.4183 69.399 23.4394 69.4983 23.4782C69.8967 23.9029 70.4193 26.3169 69.9387 30.4261ZM3.47321 44.1603C3.34521 43.8963 3.64736 43.4323 3.83895 43.179C4.14259 42.7779 4.42232 42.6958 4.63366 42.6958C4.67832 42.6958 4.71999 42.6995 4.75817 42.7046C5.32694 42.7805 6.12382 43.4064 6.546 44.4558C6.64544 44.7028 6.7746 45.112 6.80481 45.6224C5.09236 45.2676 3.76191 44.7561 3.47321 44.1603Z" fill="#2D8AF9"/>
<path d="M39.4982 16.3155V11.8888C41.0247 11.9979 41.5918 12.6957 42.1151 12.6957C42.7694 12.6957 43.0747 11.8671 43.0747 11.4527C43.0747 10.3841 40.9811 9.92621 39.4982 9.88255V9.29353C39.4982 9.03188 39.171 8.79199 38.8439 8.79199C38.4731 8.79199 38.2114 9.03188 38.2114 9.29353V9.92588C36.1397 10.144 34.068 11.2344 34.068 13.9821C34.068 16.7735 36.2488 17.5586 38.2114 18.2564V23.3811C35.987 23.2066 35.3983 21.6801 34.6786 21.6801C34.1334 21.6801 33.6755 22.3998 33.6755 22.9232C33.6755 23.9917 35.5074 25.4528 38.2114 25.4965V26.1725C38.2114 26.4341 38.4732 26.674 38.8439 26.674C39.1712 26.674 39.4982 26.4341 39.4982 26.1725V25.4311C41.8535 25.1039 43.4671 23.621 43.4671 20.9387C43.4671 17.973 41.3954 17.0133 39.4982 16.3155ZM38.3422 15.9013C37.1864 15.4652 36.2488 15.0073 36.2488 13.7643C36.2488 12.6303 37.121 12.0851 38.3422 11.9325V15.9013ZM39.3672 23.3374V18.7362C40.4357 19.194 41.2862 19.8046 41.2862 21.1784C41.2862 22.4217 40.5448 23.1195 39.3672 23.3374Z" fill="#2D8AF9"/>
</svg>
