<svg width="85" height="85" viewBox="0 0 85 85" fill="none" xmlns="http://www.w3.org/2000/svg">
<path fill-rule="evenodd" clip-rule="evenodd" d="M69.1826 57.6581L69.4108 57.7974V57.5301V53.1499H82.85V80.8499H69.4108V78.8876V78.6655L69.2048 78.7484L65.1736 80.3706C65.0575 80.4174 64.9403 80.4608 64.8222 80.5009C64.14 80.7321 63.4251 80.8505 62.7046 80.8499H43.3461C42.1823 80.8499 41.0405 80.542 40.0304 79.9579C39.956 79.9149 39.8824 79.8704 39.8095 79.8244L39.8076 79.8232L14.7939 64.5729L14.792 64.5718C13.1456 63.6 12.1358 61.8017 12.1502 59.8595V59.8584C12.1502 58.9071 12.3938 57.972 12.8575 57.1462C13.3875 56.1984 14.1882 55.4378 15.1525 54.9674L15.1543 54.9666C15.5809 54.7515 16.0347 54.5996 16.5027 54.5154L16.5049 54.515C17.7478 54.2718 19.0358 54.4883 20.1362 55.1264L20.1391 55.128L34.0956 62.8219L34.2507 62.9074L34.3096 62.7403C34.9014 61.0597 36.2575 59.779 37.9442 59.3043L53.8102 54.9645C54.8399 54.6877 55.9003 54.5479 56.965 54.5499H62.2314C63.4469 54.5506 64.6403 54.8861 65.6835 55.5219L69.1826 57.6581ZM16.0321 62.4193C15.1345 61.8905 14.5863 60.9125 14.5933 59.859C14.5955 59.3428 14.7288 58.8352 14.9808 58.3863C15.2692 57.8771 15.7038 57.4676 16.2257 57.2149C16.4558 57.101 16.6996 57.02 16.9515 56.9751C17.1338 56.9407 17.3192 56.9228 17.505 56.9228C18.0036 56.9213 18.4933 57.054 18.9256 57.3059L34.0579 65.638L34.1187 65.6715L34.1326 65.7394C34.1416 65.7839 34.1467 65.8282 34.1509 65.8649L34.1526 65.8795C34.1575 65.9212 34.1621 65.9545 34.1702 65.9863C34.8035 68.3636 36.9173 70.0125 39.3302 70.0183C40.0838 69.9479 40.8303 69.8116 41.5617 69.6121L55.693 65.7588L55.0606 63.344L40.9785 67.1795L40.9733 67.1809C40.6587 67.2547 40.2986 67.3337 39.9961 67.3961C39.6986 67.4575 39.4444 67.5056 39.3499 67.5137L39.3373 67.5148C38.0266 67.5169 36.8801 66.6243 36.5362 65.3407C36.4892 65.1609 36.4614 64.9763 36.4515 64.7917L36.4513 64.7884L36.4512 64.7844L36.4509 64.7732L36.4498 64.7326C36.449 64.6986 36.4479 64.6519 36.4473 64.6013C36.4459 64.5036 36.4457 64.3809 36.4519 64.3122C36.562 63.0807 37.4089 62.0447 38.5817 61.7122L38.5831 61.7118L54.4436 57.3881C55.2661 57.1638 56.114 57.0499 56.9652 57.0499H62.2315C63.0052 57.0499 63.7641 57.2641 64.4269 57.6687L69.3389 60.6655L69.4108 60.7094V60.7936V75.8757V75.977L69.3168 76.0148L64.2759 78.0451C63.7772 78.2457 63.2449 78.3492 62.7085 78.3499H43.346C42.5436 78.3492 41.7574 78.1191 41.0777 77.686L41.0764 77.6852L16.0331 62.4199L16.0321 62.4193ZM71.8586 55.6499H72.0086H80.2522H80.4022V55.7999V78.1999V78.3499H80.2522H72.0086H71.8586V78.1999V55.7999V55.6499Z" fill="#2D8AF9"/>
<path d="M34.1526 65.8563C34.1484 65.8196 34.1416 65.7839 34.1326 65.7394L34.1187 65.6715L34.0579 65.638L18.9256 57.3059C18.4933 57.054 18.0036 56.9213 17.505 56.9228C17.3192 56.9228 17.1338 56.9407 16.9515 56.9751C16.6996 57.02 16.4558 57.101 16.2257 57.2149C15.7038 57.4676 15.2692 57.8771 14.9808 58.3863C14.7288 58.8352 14.5955 59.3428 14.5933 59.859C14.5863 60.9125 15.1345 61.8905 16.0321 62.4193L16.0331 62.4199L41.0764 77.6852L41.0777 77.686C41.7574 78.1191 42.5436 78.3492 43.346 78.3499H62.7085C63.2449 78.3492 63.7772 78.2457 64.2759 78.0451L69.3168 76.0148L69.4108 75.977V75.8757V60.7936V60.7094L69.3389 60.6655L64.4269 57.6687C63.7641 57.2641 63.0052 57.0499 62.2315 57.0499H56.9652C56.114 57.0499 55.2661 57.1638 54.4436 57.3881L38.5831 61.7118L38.5817 61.7122C37.4089 62.0447 36.562 63.0807 36.4519 64.3122C36.4457 64.3809 36.4459 64.5036 36.4473 64.6013C36.4479 64.6519 36.449 64.6986 36.4498 64.7326L36.4509 64.7732L36.4513 64.7884L36.4515 64.7917C36.4614 64.9763 36.4892 65.1609 36.5362 65.3407C36.8801 66.6243 38.0266 67.5169 39.3373 67.5148L39.3499 67.5137C39.4444 67.5056 39.6986 67.4575 39.9961 67.3961C40.2986 67.3337 40.6587 67.2547 40.9733 67.1809L40.9785 67.1795L55.0606 63.344L55.693 65.7588L41.5617 69.6121C40.8303 69.8116 40.0838 69.9479 39.3302 70.0183C36.9173 70.0125 34.8035 68.3636 34.1702 65.9863C34.1621 65.9545 34.1575 65.898 34.1526 65.8563ZM34.1526 65.8563C34.1702 65.9863 34.1521 65.8516 34.1526 65.8563V65.8563ZM69.1826 57.6349L69.4108 57.7742V57.5069V53.1267H82.85V80.8267H69.4108V78.8644V78.6423L69.2048 78.7252L65.1736 80.3474C65.0575 80.3942 64.9403 80.4376 64.8222 80.4777C64.14 80.7089 63.4251 80.8273 62.7046 80.8267H43.3461C42.1823 80.8267 41.0405 80.5188 40.0304 79.9347C39.956 79.8917 39.8824 79.8472 39.8095 79.8012L39.8076 79.8L14.7939 64.5497L14.792 64.5486C13.1456 63.5768 12.1358 61.7785 12.1502 59.8363V59.8352C12.1502 58.8839 12.3938 57.9488 12.8575 57.123C13.3875 56.1752 14.1882 55.4146 15.1525 54.9442L15.1543 54.9434C15.5809 54.7283 16.0347 54.5764 16.5027 54.4922L16.5049 54.4918C17.7478 54.2486 19.0358 54.4651 20.1362 55.1032L20.1391 55.1048L34.0956 62.7987L34.2507 62.8842L34.3096 62.7171C34.9014 61.0365 36.2575 59.7558 37.9442 59.2811L53.8102 54.9413C54.8399 54.6645 55.9003 54.5247 56.965 54.5267H62.2314C63.4469 54.5274 64.6403 54.8629 65.6835 55.4987L69.1826 57.6349ZM72.0086 55.6267H71.8586V55.7767V78.1767V78.3267H72.0086H80.2522H80.4022V78.1767V55.7767V55.6267H80.2522H72.0086Z" stroke="white" stroke-width="0.3"/>
<path fill-rule="evenodd" clip-rule="evenodd" d="M57.6174 10.9735L57.5734 10.9294L50.3317 3.67257C48.0864 1.40936 45.031 0.140818 41.8472 0.149951L24.8743 0.149952C23.8502 0.151258 22.8402 0.390873 21.9229 0.848245L18.8977 2.36478C18.2912 2.67064 17.544 2.83259 16.8658 2.8055L15.4947 2.7573L15.35 2.75222V2.6074V0.149952H2.15002V29.6146H15.35V25.7058V25.5558H15.5H17.7953H17.8404L17.8781 25.5808L18.6951 26.122C20.9574 27.6274 23.5917 28.4775 26.3055 28.5769L26.45 28.5822V28.7268V45.8499H82.85V10.9735H57.6796H57.6174ZM42.6153 10.9294L39.4447 7.75256L37.7483 9.45269L47.1787 18.9043C48.2964 20.0198 48.2998 21.8323 47.187 22.9531C46.0732 24.0735 44.2639 24.0768 43.1459 22.9612L35.2794 15.0775L34.4392 15.7992C31.7748 18.0668 27.88 18.1248 25.1489 15.9368L25.1481 15.9361L24.4823 15.3954L22.9697 17.2643L23.6442 17.8124C24.4587 18.4647 25.3732 18.9811 26.3518 19.3414L26.45 19.3775V19.4821V26.0196V26.1764L26.2933 26.1694C24.0565 26.0698 21.8884 25.3616 20.0232 24.1203L18.5595 23.1499H15.5H15.35V22.9999V5.3146V5.15913L15.5054 5.16469L16.7782 5.21028C17.8836 5.24968 18.9807 5.01132 19.9701 4.51715L22.9929 3.0005C23.5768 2.70794 24.2214 2.55583 24.8742 2.55583H41.8465C44.394 2.54849 46.8392 3.56353 48.6353 5.37344L53.9678 10.7175L54.2232 10.9735H53.8616H42.7215H42.6593L42.6153 10.9294ZM12.95 27.2087H12.8H4.70002H4.55002V27.0587V2.70583V2.55583H4.70002H12.8H12.95V2.70583V27.0587V27.2087ZM39.3102 22.7291L39.4164 22.6231L41.4527 24.6645C43.5091 26.6942 46.8099 26.6973 48.8693 24.6707L49.1006 24.8589C47.1624 27.8668 47.9272 31.8698 50.8368 33.9471C53.7462 36.0243 57.771 35.4409 59.974 32.6232C62.1772 29.8046 61.7793 25.748 59.0701 23.4141C56.3618 21.0804 52.3003 21.2943 49.851 23.8994L49.6151 23.7162C50.5114 22.3057 50.6715 20.5478 50.045 18.9973L49.9617 18.7911H50.1841H68.2621H68.3886L68.4099 18.9159C68.98 22.2575 71.5915 24.8744 74.9253 25.4457L75.05 25.467V25.5935V31.2299V31.3563L74.9253 31.3777C71.5915 31.9489 68.98 34.5659 68.4099 37.9075L68.3886 38.0323H68.2621H41.0379H40.9114L40.8901 37.9075C40.32 34.5659 37.7085 31.9489 34.3747 31.3777L34.25 31.3563V31.2299V25.5935V25.4667L34.375 25.4456C36.2684 25.126 37.9808 24.127 39.1938 22.6345L39.3102 22.7291ZM80.45 43.444H80.3H29H28.85V43.294V20.049V19.8872L29.0113 19.8994C31.1188 20.0581 33.2199 19.5195 34.9933 18.3674L35.0953 18.3012L35.1812 18.3873L37.4844 20.6954L37.5752 20.7865L37.4991 20.8902C36.4578 22.3079 34.807 23.1465 33.05 23.1499H31.85V33.6734H33.05C36.1153 33.6734 38.6 36.164 38.6 39.2352V40.4381H70.7V39.2352C70.7 36.164 73.1847 33.6734 76.25 33.6734H77.45V23.1499H76.25C73.1847 23.1499 70.7 20.6593 70.7 17.5882V16.3852H48.1215H48.0593L48.0153 16.3412L45.3153 13.6353L45.0599 13.3793H45.4215H80.3H80.45V13.5293V43.294V43.444ZM50.45 28.4117C50.45 26.0877 52.3303 24.2029 54.65 24.2029C56.9697 24.2029 58.85 26.0877 58.85 28.4117C58.85 30.7357 56.9697 32.6205 54.65 32.6205C52.3303 32.6205 50.45 30.7357 50.45 28.4117Z" fill="#2D8AF9"/>
<path d="M59.0701 23.4141C56.3618 21.0804 52.3003 21.2943 49.851 23.8994L49.6151 23.7162C50.5114 22.3057 50.6715 20.5478 50.045 18.9973L49.9617 18.7911H50.1841H68.2621H68.3886L68.4099 18.9159C68.98 22.2575 71.5915 24.8744 74.9253 25.4457L75.05 25.467V25.5935V31.2299V31.3563L74.9253 31.3777C71.5915 31.9489 68.98 34.5659 68.4099 37.9075L68.3886 38.0323H68.2621H41.0379H40.9114L40.8901 37.9075C40.32 34.5659 37.7085 31.9489 34.3747 31.3777L34.25 31.3563V31.2299V25.5935V25.4667L34.375 25.4456C36.2684 25.126 37.9808 24.127 39.1938 22.6345L39.3102 22.7291L39.4164 22.6231L41.4527 24.6645C43.5091 26.6942 46.8099 26.6973 48.8693 24.6707L49.1006 24.8589C47.1624 27.8668 47.9272 31.8698 50.8368 33.9471C53.7462 36.0243 57.771 35.4409 59.974 32.6232C62.1772 29.8046 61.7793 25.748 59.0701 23.4141ZM59.0701 23.4141L59.168 23.3005L59.0701 23.4141ZM57.6174 10.9735L57.5734 10.9294L50.3317 3.67257C48.0864 1.40936 45.031 0.140818 41.8472 0.149951L24.8743 0.149952C23.8502 0.151258 22.8402 0.390873 21.9229 0.848245L18.8977 2.36478C18.2912 2.67064 17.544 2.83259 16.8658 2.8055L15.4947 2.7573L15.35 2.75222V2.6074V0.149952H2.15002V29.6146H15.35V25.7058V25.5558H15.5H17.7953H17.8404L17.8781 25.5808L18.6951 26.122C20.9574 27.6274 23.5917 28.4775 26.3055 28.5769L26.45 28.5822V28.7268V45.8499H82.85V10.9735H57.6796H57.6174ZM39.4447 7.75256L42.6153 10.9294L42.6593 10.9735H42.7215H53.8616H54.2232L53.9678 10.7175L48.6353 5.37344C46.8392 3.56353 44.394 2.54849 41.8465 2.55583H24.8742C24.2214 2.55583 23.5768 2.70794 22.9929 3.0005L19.9701 4.51715C18.9807 5.01132 17.8836 5.24968 16.7782 5.21028L15.5054 5.16469L15.35 5.15913V5.3146V22.9999V23.1499H15.5H18.5595L20.0232 24.1203C21.8884 25.3616 24.0565 26.0698 26.2933 26.1694L26.45 26.1764V26.0196V19.4821V19.3775L26.3518 19.3414C25.3732 18.9811 24.4587 18.4647 23.6442 17.8124L22.9697 17.2643L24.4823 15.3954L25.1481 15.9361L25.1489 15.9368C27.88 18.1248 31.7748 18.0668 34.4392 15.7992L35.2794 15.0775L43.1459 22.9612C44.2639 24.0768 46.0732 24.0735 47.187 22.9531C48.2998 21.8323 48.2964 20.0198 47.1787 18.9043L37.7483 9.45269L39.4447 7.75256ZM12.8 27.2087H12.95V27.0587V2.70583V2.55583H12.8H4.70002H4.55002V2.70583V27.0587V27.2087H4.70002H12.8ZM80.3 43.444H80.45V43.294V13.5293V13.3793H80.3H45.4215H45.0599L45.3153 13.6353L48.0153 16.3412L48.0593 16.3852H48.1215H70.7V17.5882C70.7 20.6593 73.1847 23.1499 76.25 23.1499H77.45V33.6734H76.25C73.1847 33.6734 70.7 36.164 70.7 39.2352V40.4381H38.6V39.2352C38.6 36.164 36.1153 33.6734 33.05 33.6734H31.85V23.1499H33.05C34.807 23.1465 36.4578 22.3079 37.4991 20.8902L37.5752 20.7865L37.4844 20.6954L35.1812 18.3873L35.0953 18.3012L34.9933 18.3674C33.2199 19.5195 31.1188 20.0581 29.0113 19.8994L28.85 19.8872V20.049V43.294V43.444H29H80.3ZM54.65 24.2029C52.3303 24.2029 50.45 26.0877 50.45 28.4117C50.45 30.7357 52.3303 32.6205 54.65 32.6205C56.9697 32.6205 58.85 30.7357 58.85 28.4117C58.85 26.0877 56.9697 24.2029 54.65 24.2029Z" stroke="white" stroke-width="0.3"/>
</svg>
