<svg width="85" height="85" viewBox="0 0 85 85" fill="none" xmlns="http://www.w3.org/2000/svg">
<g clip-path="url(#clip0)">
<path d="M7.93262 30.5488H14.5096C15.6087 30.5488 16.4998 31.4399 16.4998 32.5391C16.4998 33.6382 15.6087 34.5293 14.5096 34.5293H7.93262C6.83344 34.5293 5.94238 33.6382 5.94238 32.5391C5.94238 31.4399 6.83344 30.5488 7.93262 30.5488Z" fill="#2D8AF9" stroke="#EAF4FF"/>
<path d="M7.93262 50.4707H14.5096C15.6087 50.4707 16.4998 51.3618 16.4998 52.4609C16.4998 53.5601 15.6087 54.4512 14.5096 54.4512H7.93262C6.83344 54.4512 5.94238 53.5601 5.94238 52.4609C5.94238 51.3618 6.83344 50.4707 7.93262 50.4707Z" fill="#2D8AF9" stroke="#EAF4FF"/>
<path d="M2.49023 40.5098H14.5098C15.6089 40.5098 16.5 41.4008 16.5 42.5C16.5 43.5992 15.6089 44.4902 14.5098 44.4902H2.49023C1.39106 44.4902 0.5 43.5992 0.5 42.5C0.5 41.4008 1.39106 40.5098 2.49023 40.5098Z" fill="#2D8AF9" stroke="#EAF4FF"/>
<path d="M19.9389 42.5001C19.9389 24.7288 34.398 10.2697 52.1693 10.2697C69.9408 10.2697 84.3999 24.7288 84.3999 42.5001C84.3999 60.2714 69.9408 74.7305 52.1693 74.7305C34.3978 74.7305 19.9389 60.2714 19.9389 42.5001ZM23.7193 42.5001C23.7193 58.1879 36.4815 70.9501 52.1693 70.9501C67.8573 70.9501 80.6194 58.1879 80.6194 42.5001C80.6194 26.8123 67.8573 14.0501 52.1693 14.0501C36.4815 14.0501 23.7193 26.8123 23.7193 42.5001Z" fill="#2D8AF9" stroke="#EAF4FF" stroke-width="1.2"/>
<path d="M53.2775 41.6229C53.2775 43.1113 54.0134 44.5034 55.2434 45.3415L62.0967 50.0117C63.005 50.6307 63.2396 51.8689 62.6205 52.7772C62.0015 53.6855 60.7634 53.92 59.8551 53.3011L50.826 47.148C49.8694 46.4961 49.297 45.4134 49.297 44.2558V30.1414C49.297 29.0422 50.1881 28.1511 51.2872 28.1511C52.3864 28.1511 53.2775 29.0422 53.2775 30.1414V41.6229Z" fill="#2D8AF9" stroke="#EAF4FF"/>
</g>
<defs>
<clipPath id="clip0">
<rect width="85" height="85" fill="white"/>
</clipPath>
</defs>
</svg>
