<svg width="60" height="60" viewBox="0 0 60 60" fill="none" xmlns="http://www.w3.org/2000/svg">
<g clip-path="url(#clip0)">
<path d="M55.5876 18.7125H55.5496C55.5437 16.3037 54.1901 15.9197 52.1429 15.3392L52.1017 15.3273C51.449 15.1405 50.7921 14.9835 50.1123 14.8499C50.1215 14.6837 50.1265 14.5134 50.1265 14.3385C50.1233 12.0158 49.3336 10.0131 47.8436 8.54691C46.2886 7.01661 44.0305 6.1615 41.6322 6.1908C39.2418 6.15555 36.9791 7.01615 35.4245 8.54599C33.934 10.0127 33.1444 12.0158 33.1412 14.3385C33.1412 14.6274 33.1544 14.9034 33.1792 15.1689C31.8878 15.4619 30.8221 15.8134 29.9982 16.2186C27.9108 15.1927 24.3141 14.5157 19.5351 14.2557C19.0489 14.2305 18.6292 14.6031 18.6026 15.0916C18.576 15.58 18.9505 15.9975 19.4389 16.024C25.1193 16.3335 27.8526 17.1661 29.1129 17.758V50.5499C26.743 49.6408 23.0475 49.005 19.1446 48.8699C16.2007 48.7674 10.8257 48.8823 6.22147 50.6094V18.7285C6.22147 17.9306 6.3913 17.7965 6.49292 17.7159C6.7868 17.4834 7.43683 17.2989 8.33633 17.0435L8.38074 17.0306C10.3308 16.4772 12.3001 16.1874 15.1781 16.0309C15.6665 16.0043 16.0405 15.5869 16.0139 15.0984C15.9874 14.61 15.5672 14.2337 15.0815 14.2621C12.0634 14.4264 9.98199 14.735 7.89688 15.3268L7.85248 15.3397C5.80811 15.9201 4.45633 16.3046 4.45038 18.7125H4.40918C1.978 18.7125 0 20.6914 0 23.1235V53.9497C0 56.7641 2.02515 59.615 5.896 59.6187L29.9973 59.6489H29.9982H29.9991L39.7005 59.6388C40.1894 59.6384 40.5853 59.2415 40.5849 58.7521C40.5844 58.2632 40.188 57.8677 39.6996 57.8677C39.6991 57.8677 39.6986 57.8677 39.6986 57.8677L30.8839 57.8764V55.177H52.8374C54.3329 55.177 55.5496 53.9397 55.5496 52.419V20.4836H55.5872C57.0438 20.4836 58.2289 21.6678 58.2289 23.1235V53.9497C58.2289 55.8247 56.9371 57.8448 54.1017 57.8476L43.8029 57.8609C43.3136 57.8613 42.9176 58.2587 42.9185 58.7476C42.919 59.2365 43.3154 59.632 43.8043 59.632H43.8052L54.1035 59.6187C57.9749 59.615 60 56.7641 60 53.9497V23.1235C60 20.6914 58.0206 18.7125 55.5876 18.7125ZM36.6664 9.80896C37.8886 8.60642 39.6968 7.92984 41.619 7.96189H41.6455C43.5686 7.92893 45.379 8.60688 46.6013 9.80942C47.7461 10.936 48.3527 12.5029 48.3554 14.3408C48.3582 16.6429 47.3497 17.8578 46.1824 19.2645C45.1643 20.4909 44.0263 21.8623 43.7759 24.0074H42.5175V17.8711H43.9073C44.3962 17.8711 44.7926 17.4747 44.7926 16.9858C44.7926 16.4964 44.3962 16.1 43.9073 16.1H39.2674C38.7781 16.1 38.3817 16.4964 38.3817 16.9858C38.3817 17.4747 38.7781 17.8711 39.2674 17.8711H40.7465V24.0074H39.4917C39.2413 21.8623 38.1033 20.4909 37.0853 19.2645C35.9175 17.8578 34.9095 16.6429 34.9123 14.3408C34.915 12.5024 35.5215 10.9355 36.6664 9.80896ZM38.8692 25.7785H44.3985C45.1099 25.7785 45.6885 26.3567 45.6885 27.0671C45.6885 27.7757 45.1099 28.3525 44.3985 28.3525H38.8692C38.1578 28.3525 37.5792 27.7757 37.5792 27.0671C37.5792 26.3567 38.1578 25.7785 38.8692 25.7785ZM35.7225 20.3957C36.6953 21.5675 37.549 22.5989 37.733 24.2267C36.6064 24.6785 35.8081 25.7813 35.8081 27.0671C35.8081 28.7526 37.1814 30.1236 38.8692 30.1236H44.3985C46.0863 30.1236 47.4596 28.7526 47.4596 27.0671C47.4596 25.7813 46.6612 24.6785 45.5347 24.2267C45.7187 22.5989 46.5724 21.5671 47.5452 20.3952C48.4058 19.3588 49.3474 18.2231 49.8198 16.5981C50.4323 16.7198 51.0265 16.8617 51.6161 17.0306L51.6595 17.043C52.5609 17.2984 53.2118 17.4834 53.5071 17.7164C53.6087 17.7965 53.7785 17.9306 53.7785 18.7285V50.6094C49.1725 48.8823 43.7979 48.7679 40.8531 48.8699C36.9507 49.005 33.2542 49.6413 30.8839 50.5499V17.7585C31.4383 17.4976 32.2815 17.1909 33.5435 16.902C34.0398 18.3669 34.9164 19.4247 35.7225 20.3957ZM29.1129 52.4716V53.4059H7.15897C6.67191 53.4059 6.2709 53.0127 6.22604 52.5124C13.5553 49.4476 25.1784 50.6131 29.1129 52.4716ZM1.77109 53.9497V23.1235C1.77109 21.6678 2.95486 20.4836 4.40918 20.4836H4.45038V52.4194C4.45038 53.9401 5.66574 55.177 7.15942 55.177H29.1129V57.8764L5.89783 57.8476C3.0629 57.8448 1.77109 55.8247 1.77109 53.9497ZM52.8374 53.4059H30.8839V52.4721C34.8198 50.614 46.4452 49.449 53.774 52.5124C53.7273 53.0054 53.3176 53.4059 52.8374 53.4059Z" fill="white"/>
<path d="M25.6907 35.9646C24.3 35.1576 21.5424 34.5904 18.4932 34.4847C16.4603 34.4147 12.589 34.508 9.50597 35.9262C9.06148 36.1304 8.86693 36.6563 9.07109 37.1008C9.22032 37.4254 9.54122 37.6163 9.8763 37.6163C10.0004 37.6163 10.1258 37.5902 10.2457 37.5352C14.8774 35.4053 22.6676 36.2581 24.8012 37.4963C25.2242 37.7421 25.7662 37.5984 26.012 37.175C26.2574 36.7525 26.1136 36.2105 25.6907 35.9646Z" fill="white"/>
<path d="M25.6907 42.4644C24.3 41.6574 21.5424 41.0902 18.4932 40.9845C16.4603 40.914 12.589 41.0078 9.50597 42.426C9.06148 42.6301 8.86693 43.1561 9.07109 43.6006C9.22032 43.9252 9.54122 44.116 9.8763 44.116C10.0004 44.116 10.1258 44.09 10.2457 44.035C14.8774 41.905 22.6676 42.7579 24.8012 43.9961C25.2242 44.2415 25.7662 44.0982 26.012 43.6748C26.2574 43.2522 26.1136 42.7103 25.6907 42.4644Z" fill="white"/>
<path d="M25.6906 29.4649C24.2994 28.6574 21.5414 28.0897 18.4931 27.984C16.4593 27.913 12.5875 28.0064 9.50541 29.4264C9.06093 29.631 8.86683 30.157 9.07145 30.6015C9.22068 30.9256 9.54158 31.1165 9.8762 31.1165C10.0003 31.1165 10.1261 31.0904 10.2465 31.0355C14.875 28.9032 22.6661 29.7569 24.8011 30.9965C25.2241 31.2419 25.7661 31.0982 26.0119 30.6752C26.2573 30.2522 26.1135 29.7102 25.6906 29.4649Z" fill="white"/>
<path d="M35.1993 37.4964C37.3311 36.2567 45.119 35.4035 49.7506 37.5353C49.8706 37.5907 49.9965 37.6163 50.1205 37.6163C50.4556 37.6163 50.776 37.4254 50.9257 37.1009C51.1299 36.6568 50.9353 36.1309 50.4913 35.9262C47.4101 34.5081 43.5383 34.4142 41.5054 34.4852C38.4553 34.5905 35.6978 35.1577 34.3094 35.9652C33.8864 36.211 33.7426 36.753 33.9885 37.1759C34.2343 37.5989 34.7763 37.7422 35.1993 37.4964Z" fill="white"/>
<path d="M50.4907 42.426C47.4095 41.0078 43.5377 40.914 41.5048 40.9845C38.4547 41.0902 35.6976 41.6574 34.3088 42.4649C33.8858 42.7107 33.7425 43.2527 33.9883 43.6757C34.2342 44.0986 34.7762 44.2419 35.1991 43.9961C37.3309 42.7565 45.1184 41.9032 49.7505 44.035C49.8704 44.0904 49.9963 44.1165 50.1199 44.1165C50.4555 44.1165 50.7759 43.9252 50.9251 43.6006C51.1297 43.1566 50.9352 42.6306 50.4907 42.426Z" fill="white"/>
<path d="M41.6387 4.44626C42.1281 4.44626 42.5245 4.04984 42.5245 3.56094V1.23734C42.5245 0.747986 42.1281 0.351562 41.6387 0.351562C41.1498 0.351562 40.7534 0.747986 40.7534 1.23734V3.56094C40.7534 4.04984 41.1498 4.44626 41.6387 4.44626Z" fill="white"/>
<path d="M33.4771 6.25903C33.6501 6.43161 33.8767 6.51812 34.1033 6.51812C34.3299 6.51812 34.5565 6.43161 34.7296 6.25857C35.0756 5.9125 35.0752 5.35174 34.7291 5.00613L33.0821 3.35955C32.736 3.01394 32.1752 3.01394 31.8296 3.36001C31.4836 3.70562 31.4836 4.26638 31.8296 4.61245L33.4771 6.25903Z" fill="white"/>
<path d="M49.1744 6.51812C49.4015 6.51812 49.6281 6.43161 49.8011 6.25811L51.4449 4.61154C51.7905 4.26547 51.7901 3.70471 51.444 3.3591C51.0979 3.01394 50.5372 3.01394 50.1916 3.36047L48.5477 5.00659C48.2021 5.35266 48.2026 5.91342 48.5487 6.25903C48.7217 6.43161 48.9483 6.51812 49.1744 6.51812Z" fill="white"/>
<path d="M9.07109 24.0976C9.22032 24.4222 9.54122 24.6135 9.8763 24.6135C10.0004 24.6135 10.1258 24.5874 10.2457 24.5325C14.8728 22.4043 22.6653 23.2567 24.8021 24.494C25.2251 24.7394 25.7671 24.5947 26.0125 24.1718C26.2574 23.7483 26.1132 23.2063 25.6897 22.9614C24.2986 22.1558 21.541 21.5891 18.4932 21.4833C16.4599 21.4128 12.5881 21.5057 9.50597 22.923C9.06148 23.1276 8.86693 23.6536 9.07109 24.0976Z" fill="white"/>
</g>
<defs>
<clipPath id="clip0">
<rect width="60" height="60" fill="white"/>
</clipPath>
</defs>
</svg>
