<svg width="60" height="60" viewBox="0 0 60 60" fill="none" xmlns="http://www.w3.org/2000/svg">
<path d="M55 0H5C2.243 0 0 2.243 0 5V36V40C0 42.757 2.243 45 5 45H21.802L20.166 54H16.237C15.093 54 14.065 54.635 13.553 55.658C13.085 56.595 13.134 57.686 13.684 58.577C14.234 59.468 15.189 60 16.236 60H43.763C44.81 60 45.764 59.468 46.315 58.577C46.866 57.686 46.915 56.595 46.446 55.658C45.936 54.635 44.908 54 43.764 54H39.835L38.199 45H55C57.757 45 60 42.757 60 40V36V5C60 2.243 57.757 0 55 0ZM39 56H43.764C44.145 56 44.488 56.212 44.659 56.553C44.884 57.003 44.703 57.383 44.616 57.526C44.526 57.668 44.267 58 43.764 58H16.236C15.733 58 15.473 57.668 15.385 57.525C15.297 57.382 15.116 57.003 15.342 56.552C15.512 56.212 15.855 56 16.236 56H21H29C29.552 56 30 55.552 30 55C30 54.448 29.552 54 29 54H22.198L23.834 45H36.165L37.802 54H35C34.448 54 34 54.448 34 55C34 55.552 34.448 56 35 56H39ZM58 40C58 41.654 56.654 43 55 43H37H23H5C3.346 43 2 41.654 2 40V37H58V40ZM58 35H2V5C2 3.346 3.346 2 5 2H55C56.654 2 58 3.346 58 5V35Z" fill="white"/>
<path d="M27 20H17V10C17 9.448 16.552 9 16 9C9.383 9 4 14.383 4 21C4 27.617 9.383 33 16 33C22.617 33 28 27.617 28 21C28 20.448 27.552 20 27 20ZM16 31C10.486 31 6 26.514 6 21C6 15.824 9.954 11.553 15 11.05V21C15 21.552 15.448 22 16 22H25.95C25.447 27.046 21.176 31 16 31Z" fill="white"/>
<path d="M20 5C19.448 5 19 5.448 19 6V17C19 17.552 19.448 18 20 18H31C31.552 18 32 17.552 32 17C32 10.383 26.617 5 20 5ZM21 16V7.05C25.717 7.52 29.48 11.283 29.95 16H21Z" fill="white"/>
<path d="M55 4H35C34.448 4 34 4.448 34 5V32C34 32.552 34.448 33 35 33H55C55.552 33 56 32.552 56 32V5C56 4.448 55.552 4 55 4ZM54 31H36V6H54V31Z" fill="white"/>
<path d="M45 9H39C38.448 9 38 9.448 38 10C38 10.552 38.448 11 39 11H45C45.552 11 46 10.552 46 10C46 9.448 45.552 9 45 9Z" fill="white"/>
<path d="M51 13H39C38.448 13 38 13.448 38 14C38 14.552 38.448 15 39 15H51C51.552 15 52 14.552 52 14C52 13.448 51.552 13 51 13Z" fill="white"/>
<path d="M45 17H39C38.448 17 38 17.448 38 18C38 18.552 38.448 19 39 19H45C45.552 19 46 18.552 46 18C46 17.448 45.552 17 45 17Z" fill="white"/>
<path d="M51 21H39C38.448 21 38 21.448 38 22C38 22.552 38.448 23 39 23H51C51.552 23 52 22.552 52 22C52 21.448 51.552 21 51 21Z" fill="white"/>
<path d="M45 25H39C38.448 25 38 25.448 38 26C38 26.552 38.448 27 39 27H45C45.552 27 46 26.552 46 26C46 25.448 45.552 25 45 25Z" fill="white"/>
<path d="M32 39H28C27.448 39 27 39.448 27 40C27 40.552 27.448 41 28 41H32C32.552 41 33 40.552 33 40C33 39.448 32.552 39 32 39Z" fill="white"/>
</svg>
