<svg width="60" height="60" viewBox="0 0 60 60" fill="none" xmlns="http://www.w3.org/2000/svg">
<g clip-path="url(#clip0)">
<path d="M53.4513 28.2701C53.4513 21.8865 50.8698 14.7836 46.546 9.27009C41.9258 3.37886 35.8951 0 30.0003 0C24.1052 0 18.0745 3.37886 13.4544 9.27009C9.13035 14.7836 6.54883 21.8865 6.54883 28.2701C6.54883 37.4688 14.5881 42.8627 28.6667 43.1804V46.2935C21.8808 46.5244 15.1134 48.5111 13.8363 52.1143C12.1608 52.6008 10.9315 54.1465 10.9315 55.9764C10.9315 58.1949 12.7366 60 14.9551 60C17.1736 60 18.9787 58.1949 18.9787 55.9764C18.9787 54.4021 18.0679 53.04 16.7473 52.3792C17.2879 51.7688 18.3433 51.0651 20.1094 50.4278C22.4517 49.5823 25.4509 49.0714 28.6667 48.9604V52.1846C27.1025 52.7366 25.9765 54.2257 25.9765 55.9764C25.9765 58.1949 27.7814 60 30.0001 60C32.2187 60 34.0237 58.1949 34.0237 55.9764C34.0237 54.2257 32.8976 52.7366 31.3334 52.1846V48.961C37.55 49.1733 41.901 50.8442 43.2595 52.376C41.9355 53.0354 41.0212 54.3996 41.0212 55.9764C41.0212 58.1949 42.8264 60 45.045 60C47.2637 60 49.0686 58.1949 49.0686 55.9764C49.0686 54.147 47.8403 52.6015 46.1656 52.1149C44.8944 48.5097 38.1441 46.5234 31.3334 46.2933V43.1804C45.4121 42.8627 53.4513 37.4688 53.4513 28.2701ZM14.9551 57.3333C14.2069 57.3333 13.5982 56.7246 13.5982 55.9764C13.5982 55.2282 14.2069 54.6194 14.9551 54.6194C15.7033 54.6194 16.3121 55.2282 16.3121 55.9764C16.3121 56.7246 15.7031 57.3333 14.9551 57.3333ZM45.045 57.3333C44.2966 57.3333 43.6879 56.7246 43.6879 55.9764C43.6879 55.2282 44.2966 54.6194 45.045 54.6194C45.7932 54.6194 46.402 55.2282 46.402 55.9764C46.402 56.7246 45.7932 57.3333 45.045 57.3333ZM9.2155 28.2701C9.2155 22.4632 11.5846 15.9756 15.5524 10.9158C19.6639 5.67333 24.93 2.66667 30.0003 2.66667C35.0705 2.66667 40.3365 5.67333 44.4477 10.9158C48.4157 15.9758 50.7848 22.4632 50.7848 28.2701C50.7848 32.084 49.0597 35.0798 45.6576 37.1741C42.0924 39.3688 36.6782 40.5288 30.0005 40.5288C23.3224 40.5288 17.9081 39.3688 14.3429 37.1741C10.9406 35.0798 9.2155 32.084 9.2155 28.2701ZM30.0001 57.3333C29.2519 57.3333 28.6431 56.7246 28.6431 55.9764C28.6431 55.2282 29.2519 54.6194 30.0001 54.6194C30.7483 54.6194 31.357 55.2282 31.357 55.9764C31.357 56.7246 30.7483 57.3333 30.0001 57.3333Z" fill="white" stroke="#2D8AF9" stroke-width="0.5"/>
<path d="M43.4163 28.2324C43.077 27.579 42.2721 27.3242 41.6184 27.6634C37.4894 29.8074 33.689 30.8497 30.0001 30.8497C26.3111 30.8497 22.5107 29.8074 18.3818 27.6634C17.7284 27.324 16.9235 27.5786 16.5841 28.2324C16.2448 28.8859 16.4995 29.6906 17.153 30.0303C21.6707 32.376 25.873 33.5164 30.0001 33.5164C34.1271 33.5164 38.3296 32.3762 42.8471 30.0303C43.5008 29.6906 43.7555 28.8857 43.4163 28.2324Z" fill="white" stroke="#2D8AF9" stroke-width="0.5"/>
</g>
<defs>
<clipPath id="clip0">
<rect width="60" height="60" fill="white"/>
</clipPath>
</defs>
</svg>
