<svg width="60" height="60" viewBox="0 0 60 60" fill="none" xmlns="http://www.w3.org/2000/svg">
<g clip-path="url(#clip0)">
<path d="M59.8966 5.94077C59.7093 5.57133 59.3048 5.36362 58.8968 5.42745L53.7846 6.2155L54.5727 1.10337C54.6357 0.69422 54.4287 0.290815 54.0593 0.103539C53.6899 -0.0837377 53.2421 -0.012376 52.9493 0.280475L47.0152 6.2146C46.8714 6.3586 46.777 6.5446 46.7461 6.74579L45.8068 12.8394L42.4099 16.2363C37.7307 11.892 31.6735 9.50937 25.2456 9.50937C18.497 9.50937 12.1559 12.1339 7.39034 16.8995C2.62455 21.6651 0 28.0062 0 34.7548C0 41.5034 2.62455 47.8444 7.39008 52.6101C12.1557 57.3756 18.4968 60 25.2453 60C31.9938 60 38.335 57.3755 43.1005 52.6099C47.8661 47.8443 50.4906 41.5032 50.4906 34.7547C50.4906 29.3865 48.8316 24.2625 45.6928 19.9365C45.3822 19.5083 44.7832 19.4131 44.3556 19.7238C43.9275 20.0344 43.8323 20.633 44.1429 21.061C47.0429 25.0581 48.5757 29.7932 48.5757 34.7548C48.5757 47.6192 38.1097 58.0851 25.2453 58.0851C12.3809 58.0851 1.91489 47.6192 1.91489 34.7548C1.91489 21.8904 12.3809 11.4244 25.2453 11.4244C31.1617 11.4244 36.738 13.608 41.0547 17.5914L36.678 21.9681C33.5308 19.1498 29.4997 17.6055 25.2452 17.6055C15.7889 17.6055 8.09579 25.2988 8.09579 34.7549C8.09579 44.2111 15.7889 51.9044 25.2452 51.9044C34.7014 51.9044 42.3945 44.2111 42.3945 34.7549C42.3945 31.5988 41.5315 28.5147 39.899 25.8359C39.6237 25.3843 39.0346 25.2412 38.5831 25.5166C38.1315 25.7917 37.9887 26.381 38.2638 26.8325C39.7132 29.2111 40.4794 31.9506 40.4794 34.7551C40.4794 43.1555 33.6453 49.9896 25.2451 49.9896C16.8447 49.9896 10.0106 43.1555 10.0106 34.7551C10.0106 26.3547 16.8447 19.5206 25.2451 19.5206C28.9889 19.5206 32.5384 20.8658 35.3221 23.3239L30.9351 27.7109C29.3298 26.4097 27.3426 25.7016 25.2451 25.7016C20.2531 25.7016 16.1917 29.7629 16.1917 34.7551C16.1917 39.7472 20.2531 43.8084 25.2451 43.8084C30.2372 43.8084 34.2984 39.7472 34.2984 34.7551C34.2984 33.8657 34.1697 32.9866 33.9161 32.1421C33.7639 31.6357 33.23 31.3482 32.7236 31.5008C32.2172 31.6528 31.93 32.1867 32.0822 32.6932C32.2822 33.3589 32.3835 34.0524 32.3835 34.7551C32.3835 38.6912 29.1812 41.8935 25.2451 41.8935C21.3089 41.8935 18.1066 38.6912 18.1066 34.7551C18.1066 30.8188 21.3089 27.6165 25.2451 27.6165C26.8301 27.6165 28.3344 28.1298 29.5709 29.0751L24.568 34.0781C24.194 34.4521 24.194 35.0583 24.568 35.4322C24.7548 35.6191 25 35.7125 25.2449 35.7125C25.4899 35.7125 25.735 35.6191 25.9219 35.4322L43.0971 18.257C43.103 18.2511 47.1602 14.1938 47.1602 14.1938L53.2538 13.2544C53.455 13.2235 53.641 13.1292 53.785 12.9853L59.7191 7.05116C60.0124 6.75792 60.0837 6.31009 59.8966 5.94077ZM48.5907 7.3472L52.2343 3.70367L51.7408 6.90524L48.0971 10.5489L48.5907 7.3472ZM52.6528 11.4095L49.4513 11.903L53.095 8.25933L56.2963 7.76579L52.6528 11.4095Z" fill="white" stroke="white" stroke-width="0.2"/>
</g>
<defs>
<clipPath id="clip0">
<rect width="60" height="60" fill="white"/>
</clipPath>
</defs>
</svg>
