<svg width="60" height="60" viewBox="0 0 60 60" fill="none" xmlns="http://www.w3.org/2000/svg">
<path d="M29.8222 27.0537L29.9999 27.2333L30.1777 27.0537C31.7788 25.4354 34.377 23.0148 37.4041 21.0002C40.4369 18.9819 43.8685 17.3928 47.1427 17.3928C51.1183 17.3928 54.263 18.5786 56.4135 20.7292C58.5641 22.8797 59.7499 26.0244 59.7499 30C59.7499 33.9755 58.5641 37.1202 56.4136 39.2707C54.263 41.4213 51.1183 42.6071 47.1427 42.6071C43.8685 42.6071 40.4369 41.018 37.4041 38.9997C34.377 36.9851 31.7788 34.5645 30.1777 32.9462L29.9999 32.7666L29.8222 32.9462C28.2211 34.5645 25.6229 36.9851 22.5958 38.9997C19.5629 41.018 16.1313 42.6071 12.8571 42.6071C8.88162 42.6071 5.73692 41.4213 3.58635 39.2707C1.43578 37.1202 0.25 33.9755 0.25 30C0.25 26.0244 1.43578 22.8797 3.58635 20.7292C5.73692 18.5786 8.88162 17.3928 12.8571 17.3928C16.1313 17.3928 19.5629 18.9819 22.5958 21.0002C25.6229 23.0148 28.2211 25.4354 29.8222 27.0537ZM27.2377 30.1757L27.4116 29.9997L27.2374 29.8239C25.6144 28.187 23.2298 26.0324 20.6549 24.2851C18.09 22.5446 15.2937 21.1785 12.857 21.1785C9.974 21.1785 7.75676 21.9098 6.26182 23.4048C4.76688 24.8997 4.03554 27.1169 4.03554 30C4.03554 32.883 4.76688 35.1002 6.26182 36.5951C7.75676 38.0901 9.974 38.8214 12.857 38.8214C15.3032 38.8214 18.101 37.4565 20.6646 35.7164C23.238 33.9696 25.6179 31.8149 27.2377 30.1757ZM32.7618 29.8245L32.5884 30.0005L32.7623 30.176C34.3853 31.8129 36.7699 33.9675 39.3449 35.7148C41.9097 37.4553 44.7061 38.8214 47.1427 38.8214C50.0258 38.8214 52.243 38.0901 53.7379 36.5951C55.2329 35.1002 55.9642 32.883 55.9642 30C55.9642 27.1169 55.2329 24.8997 53.7379 23.4048C52.243 21.9098 50.0258 21.1785 47.1427 21.1785C44.6966 21.1785 41.8961 22.544 39.3312 24.2843C36.7564 26.0315 34.3765 28.1862 32.7618 29.8245Z" fill="#EAF4FF" stroke="#2D8AF9" stroke-width="0.5"/>
</svg>
