<svg width="60" height="60" viewBox="0 0 60 60" fill="none" xmlns="http://www.w3.org/2000/svg">
<g clip-path="url(#clip0)">
<path d="M56.4841 32.0617V26.486C56.4841 25.5152 55.6971 24.7282 54.7263 24.7282C51.0949 24.7282 47.7094 25.0346 44.5108 25.6604C42.6462 23.8598 40.3731 22.5534 37.9116 21.8394C40.5957 19.5804 42.3045 16.198 42.3045 12.4235C42.3045 5.57402 36.7846 0.00164795 29.9998 0.00164795C23.215 0.00164795 17.6952 5.57402 17.6952 12.4235C17.6952 16.198 19.404 19.5804 22.0882 21.8393C19.6266 22.5534 17.3536 23.8598 15.489 25.6603C12.2904 25.0346 8.90483 24.728 5.27343 24.728C4.30265 24.728 3.51562 25.5151 3.51562 26.4859V32.0616C1.46965 32.7872 0 34.7411 0 37.0327V40.5483C0 42.8399 1.46965 44.7938 3.51562 45.5194V51.0952C3.51562 52.066 4.30265 52.853 5.27343 52.853C14.4643 52.853 22.0115 55.0307 29.0249 59.7062C29.6126 60.0979 30.3868 60.0988 30.9751 59.7062C37.9885 55.0307 45.5356 52.853 54.7266 52.853C55.6974 52.853 56.4844 52.066 56.4844 51.0952V45.5194C58.5304 44.7938 60 42.8399 60 40.5483V37.0327C59.9998 34.7412 58.5301 32.7874 56.4841 32.0617ZM21.2108 12.4235C21.2108 7.51253 25.1535 3.51727 29.9998 3.51727C34.8461 3.51727 38.7889 7.51253 38.7889 12.4235C38.7889 17.2698 34.8461 21.2125 29.9998 21.2125C25.1535 21.2125 21.2108 17.2698 21.2108 12.4235ZM5.27331 42.3063C4.30405 42.3063 3.5155 41.5177 3.5155 40.5484V37.0328C3.5155 36.0636 4.30405 35.275 5.27331 35.275C6.24257 35.275 7.03112 36.0636 7.03112 37.0328V40.5484C7.03112 41.5177 6.24257 42.3063 5.27331 42.3063ZM28.242 55.0896C21.8608 51.4403 15.0132 49.5959 7.03112 49.3628V45.5195C9.07709 44.7939 10.5467 42.84 10.5467 40.5484V37.0328C10.5467 34.7412 9.07709 32.7874 7.03112 32.0617V28.2686C15.2906 28.5057 21.9296 30.4506 28.242 34.4697V55.0896ZM29.9998 31.4241C26.7554 29.377 23.3783 27.8183 19.7731 26.7229C21.7541 25.4355 24.086 24.7282 26.4842 24.7282H33.5154C35.9137 24.7282 38.2456 25.4355 40.2265 26.7229C36.6214 27.8183 33.2442 29.377 29.9998 31.4241ZM52.9685 49.3628C44.9866 49.5959 38.1387 51.4408 31.7576 55.0899V34.4711C38.0702 30.4517 44.7087 28.5056 52.9685 28.2686V32.0617C50.9226 32.7874 49.4529 34.7412 49.4529 37.0328V40.5484C49.4529 42.84 50.9226 44.7939 52.9685 45.5195V49.3628ZM56.4841 40.5484C56.4841 41.5177 55.6956 42.3063 54.7263 42.3063C53.7571 42.3063 52.9685 41.5177 52.9685 40.5484V37.0328C52.9685 36.0636 53.7571 35.275 54.7263 35.275C55.6956 35.275 56.4841 36.0636 56.4841 37.0328V40.5484Z" fill="white" stroke="#2D8AF9"/>
</g>
<defs>
<clipPath id="clip0">
<rect width="60" height="60" fill="white"/>
</clipPath>
</defs>
</svg>
