<svg width="60" height="60" viewBox="0 0 60 60" fill="none" xmlns="http://www.w3.org/2000/svg">
<path d="M31.99 39.4971H47.985C48.5848 39.4971 48.9846 39.0973 48.9846 38.4975V29.5003C48.9846 28.9004 48.5848 28.5006 47.985 28.5006H31.99C31.3902 28.5006 30.9904 28.9004 30.9904 29.5003V38.4975C30.9902 39.0971 31.3902 39.4971 31.99 39.4971ZM32.9897 30.4999H46.9853V37.4977H32.9897V30.4999Z" fill="white"/>
<path d="M4.99843 26.5011H12.996C13.5958 26.5011 13.9956 26.1012 13.9956 25.5014C13.9956 24.9016 13.5958 24.5018 12.996 24.5018H4.99843C4.39862 24.5018 3.99878 24.9016 3.99878 25.5014C3.99878 26.1012 4.39862 26.5011 4.99843 26.5011Z" fill="white"/>
<path d="M16.9948 26.5011H24.9923C25.5921 26.5011 25.992 26.1012 25.992 25.5014C25.992 24.9016 25.5921 24.5018 24.9923 24.5018H16.9948C16.395 24.5018 15.9951 24.9016 15.9951 25.5014C15.9951 26.1012 16.395 26.5011 16.9948 26.5011Z" fill="white"/>
<path d="M4.99843 30.4999H17.9943C18.5941 30.4999 18.994 30.1001 18.994 29.5003C18.994 28.9004 18.5941 28.5006 17.9943 28.5006H4.99843C4.39862 28.5006 3.99878 28.9004 3.99878 29.5003C3.99878 30.1001 4.39862 30.4999 4.99843 30.4999Z" fill="white"/>
<path d="M24.9922 28.5005H21.9932C21.3934 28.5005 20.9935 28.9003 20.9935 29.5001C20.9935 30.0999 21.3934 30.4998 21.9932 30.4998H24.9922C25.5921 30.4998 25.9919 30.0999 25.9919 29.5001C25.9919 28.9003 25.5921 28.5005 24.9922 28.5005Z" fill="white"/>
<path d="M59.0815 16.1044C58.3818 15.2047 57.4821 14.7048 56.3824 14.6049L53.9831 14.3141V11.5058V9.50646C53.9831 7.30719 52.1837 5.50775 49.9844 5.50775H3.99871C1.79944 5.50763 0 7.30707 0 9.50646V11.5059V19.5034V41.4965C0 43.3021 1.21333 44.8374 2.86469 45.3294C2.81432 47.3517 4.34442 49.1073 6.39808 49.2941L52.5836 54.4924C52.6836 54.4924 52.8836 54.4924 52.9835 54.4924C54.9829 54.4924 56.7823 52.9929 56.9822 51.0935L59.9813 19.0035C60.0812 18.0038 59.7813 16.9041 59.0815 16.1044ZM1.99941 12.5055H51.9838V15.1048V18.5036H1.99941V12.5055ZM3.99871 7.50705H49.9843C51.084 7.50705 51.9837 8.40677 51.9837 9.50646V10.5061H1.99941V9.50646C1.99941 8.40677 2.89913 7.50705 3.99871 7.50705ZM1.99941 41.4964V20.5029H51.9838V41.4964C51.9838 42.5961 51.0841 43.4958 49.9844 43.4958H4.09876H3.99883C2.89913 43.4958 1.99941 42.5961 1.99941 41.4964ZM57.9818 18.6036L54.9828 50.6935C54.8829 51.7932 53.8831 52.5929 52.7835 52.493L6.69787 47.2946C5.69822 47.1947 4.99836 46.3949 4.89843 45.4952H49.9843C52.1836 45.4952 53.983 43.6958 53.983 41.4965V19.5033V16.2043L56.2823 16.4043C56.7822 16.4043 57.282 16.7042 57.5819 17.104C57.8819 17.5039 58.0819 18.1037 57.9818 18.6036Z" fill="white"/>
</svg>
